<svg width="239" height="304" viewBox="0 0 239 304" fill="none" xmlns="http://www.w3.org/2000/svg">
<path d="M26.6029 34.1612C14.6263 48.3886 7.28372 65.9336 4.19663 83.8015C0.0406895 107.859 3.84345 134.395 21.1019 152.851C52.1971 186.104 112.282 197.809 153.549 174.127C185.286 155.914 200.686 118.768 201.543 85.5612C202.14 62.4117 196.244 38.8322 176.44 23.2651C141.189 -4.44428 87.3793 -7.7946 48.6785 15.3283C40.0732 20.4686 32.7319 26.8816 26.6029 34.1612Z" fill="#F5EDCE"/>
<path d="M174.46 90.2955L179.574 152.187H172.176L170.943 90.2955H174.46Z" fill="#1A0000"/>
<path d="M200.762 90.7761H96.1015L95.0764 84.2811C95.0764 84.2811 195.216 78.6287 198.274 79.5899C201.332 80.5524 200.762 90.7761 200.762 90.7761Z" fill="#1A0000"/>
<path d="M36.7166 147.887C36.7166 147.887 22.9316 31.7282 26.0519 29.6419C33.6096 24.5861 113.949 25.8185 117.504 29.5901C125.937 38.5373 134.823 147.887 134.823 147.887H36.7166Z" fill="#3F7F28"/>
<path d="M178.132 147.886C178.132 147.886 179.1 115.111 175.151 110.063C171.203 105.014 36.718 110.063 36.718 110.063V147.886H178.132Z" fill="#3F7F28"/>
<path d="M93.0954 147.887L97.1863 191.845H93.0954L81.0139 147.887H93.0954Z" fill="#1A0000"/>
<path d="M36.779 147.887L32.6894 191.845H36.779L48.8604 147.887H36.779Z" fill="#1A0000"/>
<path d="M176.059 147.887L180.15 191.845H176.059L163.977 147.887H176.059Z" fill="#1A0000"/>
<path d="M119.742 147.887L115.653 191.845H119.742L131.824 147.887H119.742Z" fill="#1A0000"/>
<path d="M37.5095 152.186L178.13 152.186V147.888L37.5095 147.888V152.186Z" fill="#1A0000"/>
<path d="M46.7346 28.9544C50.151 30.3609 64.2347 120.412 64.2347 120.412" stroke="#1A0000" stroke-width="0.5" stroke-miterlimit="10" stroke-linecap="round" stroke-linejoin="round"/>
<path d="M129.382 119.915C129.382 119.915 74.7056 120.354 44.3035 121.054" stroke="#1A0000" stroke-width="0.5" stroke-miterlimit="10" stroke-linecap="round" stroke-linejoin="round"/>
<path d="M104.441 146.191C104.441 146.191 105.218 124.191 101.232 120.187" stroke="#1A0000" stroke-width="0.5" stroke-miterlimit="10" stroke-linecap="round" stroke-linejoin="round"/>
<path d="M138.128 32.147L145.868 38.203C149.514 38.396 151.539 35.6121 151.539 35.6121C151.539 35.6121 158.157 36.5758 158.581 35.6802C159.006 34.7846 153.515 33.2419 153.515 33.2419C153.515 33.2419 161.723 34.1867 162.246 32.8685C162.771 31.5504 154.298 30.5753 154.298 30.5753C154.298 30.5753 162.558 29.7377 162.818 28.3905C163.077 27.0421 153.531 27.9099 153.531 27.9099C153.531 27.9099 161.495 25.155 160.95 24.3427C160.406 23.5303 145.849 27.278 145.849 27.278C145.849 27.278 147.319 21.5903 145.058 21.4666L138.128 32.147Z" fill="#FF918C"/>
<path d="M147.984 28.0676C149.343 30.2473 149.827 32.9051 149.32 35.3926" stroke="#1A0000" stroke-width="0.5" stroke-miterlimit="10" stroke-linecap="round" stroke-linejoin="round"/>
<path d="M149.256 35.8833C149.256 35.8833 146.001 43.4517 140.987 51.8162C134.805 62.1471 125.946 73.7079 117.257 73.7079C101.537 73.7079 89.5037 53.3929 89.5037 53.3929L88.1295 28.417L94.1151 28.1962C97.7997 28.0613 101.278 29.7894 103.269 32.731L117.408 53.6566L126.846 43.7406L139.157 30.7985L149.256 35.8833Z" fill="#FF918C"/>
<path d="M126.223 43.8315L128.615 41.127C135.903 41.2897 142.509 50.1347 142.509 50.1347L140.63 53.2277L126.223 43.8315Z" fill="#57C497"/>
<path d="M141.474 52.7925C135.292 63.1235 125.946 73.7067 117.257 73.7067C101.537 73.7067 89.5037 53.3917 89.5037 53.3917L88.1295 28.4157L94.1151 28.195C97.7997 28.06 101.278 29.7882 103.269 32.7298L117.256 52.7206L126.214 43.4165C132.557 45.5432 138.888 50.657 141.474 52.7925Z" fill="#BFE4EF"/>
<path d="M56.0239 31.4318C68.4625 29.4173 74.8093 28.7046 88.1309 28.4158C103.074 43.7861 105.177 56.7445 98.5327 60.2475L99.968 79.4108C85.8205 83.3351 77.9893 85.7671 65.0023 74.9896L54.4412 48.6803L56.0239 31.4318Z" fill="#BFE4EF"/>
<path d="M66.261 29.903C72.9835 36.4951 83.5752 37.2494 83.5752 37.2494C84.5618 33.141 82.3205 28.5873 82.3205 28.5873C72.795 28.7765 66.261 29.903 66.261 29.903Z" fill="#FF918C"/>
<path d="M68.5116 5.18436C61.1464 7.99731 59.5916 19.6742 69.8221 22.2702C80.0526 24.8661 86.5773 14.3119 81.1401 7.85729C76.1835 1.97281 68.5116 5.18436 68.5116 5.18436Z" fill="#311E33"/>
<path d="M63.648 18.8253C60.2874 20.1094 59.334 25.1449 64.0038 26.3306C68.6723 27.5151 71.4792 22.6852 69.0242 20.1422C66.5757 17.6067 63.648 18.8253 63.648 18.8253Z" fill="#311E33"/>
<path d="M83.0109 33.5207L81.1374 25.9926C81.1374 25.9926 86.1564 25.4199 86.5428 23.1053C87.2744 18.6739 75.9923 7.14587 75.9923 7.14587L66.6341 9.6952L68.558 18.4771L67.7415 31.2527L83.0109 33.5207Z" fill="#FF918C"/>
<path d="M68.5049 18.2551C71.6372 16.5787 70.8392 12.2773 70.8392 12.2773C74.1307 13.9285 76.6057 7.35146 76.6057 7.35146L76.2764 5.83902L65.0023 9.7065L68.5049 18.2551Z" fill="#311E33"/>
<path d="M81.1401 25.9913C81.1401 25.9913 77.4688 25.9017 75.5581 24.692" stroke="#1A0000" stroke-width="0.5" stroke-miterlimit="10" stroke-linecap="round" stroke-linejoin="round"/>
<path d="M65.4948 18.4935C65.8799 19.5026 67.0457 20.0589 68.0973 19.736C69.1489 19.4131 69.6893 18.3346 69.3042 17.3254C68.9192 16.3163 67.7534 15.76 66.7018 16.0829C65.6502 16.4046 65.1098 17.4844 65.4948 18.4935Z" fill="#FF918C"/>
<path d="M68.9112 18.0999C68.9112 18.0999 67.9127 16.4702 66.3141 17.2434" stroke="#1A0000" stroke-width="0.5" stroke-miterlimit="10" stroke-linecap="round" stroke-linejoin="round"/>
<path d="M78.2443 13.9284C78.8643 14.3106 79.5256 14.631 80.2147 14.8833C79.9664 15.1457 79.7181 15.4068 79.4698 15.6692" stroke="#1A0000" stroke-width="0.5" stroke-miterlimit="10" stroke-linecap="round" stroke-linejoin="round"/>
<path d="M80.5625 12.9508C80.5625 12.9508 79.6105 12.8701 79.2573 13.415" stroke="#1A0000" stroke-width="0.5" stroke-miterlimit="10" stroke-linecap="round" stroke-linejoin="round"/>
<path d="M76.8421 14.4532C76.8421 14.4532 75.2288 14.3598 74.3167 15.4598" stroke="#1A0000" stroke-width="0.5" stroke-miterlimit="10" stroke-linecap="round" stroke-linejoin="round"/>
<path d="M79.1472 16.4311C79.0529 16.4525 78.9573 16.4752 78.8776 16.5282C78.7249 16.6304 78.6718 16.8335 78.717 17.005C78.7621 17.1766 78.8896 17.3204 79.0383 17.4289C79.3463 17.6547 79.7579 17.748 80.1403 17.6812C80.5227 17.613 80.8706 17.3847 81.0711 17.0681C81.1919 16.8776 81.2623 16.6455 81.2012 16.4311C81.0924 16.0413 80.7816 16.0527 80.4577 16.1321C80.0222 16.2381 79.584 16.3314 79.1472 16.4311Z" fill="white"/>
<path d="M208.216 137.112L202.207 136.153L194.915 124.381L177.745 134.835L186.578 144.768L188.743 153.062L192.448 151.368L192.924 151.905L195.106 150.153L211.115 142.832L208.216 137.112Z" fill="#FF918C"/>
<path d="M186.446 144.715L190.856 163.005L195.606 160.832L197.229 156.053L202.482 157.689L232.391 144.011L231.106 142.108C230.009 140.483 228.206 139.409 226.188 139.178L208.215 137.113C196.151 150.431 186.446 144.715 186.446 144.715Z" fill="#BFE4EF"/>
<path d="M147.297 175.668L141.278 171.629H124.748L122.469 182.016H147.297V175.668Z" fill="#FF918C"/>
<path d="M145.228 165.208L139.534 182.016H122.469L127.028 161.24L145.228 165.208Z" fill="#FF918C"/>
<path d="M124.211 173.549L119.834 191.845H125.107L128.752 188.207L132.738 191.845H165.932L165.643 189.601C165.396 187.685 164.262 185.974 162.55 184.934L147.299 175.668C130.345 182.698 124.211 173.549 124.211 173.549Z" fill="#BFE4EF"/>
<path d="M65.0023 74.9908C65.0023 74.9908 50.1856 119.915 82.7401 120.188C111.97 120.434 130.168 112.39 130.168 112.39L121.965 166.254C139.609 173.034 149.385 169.438 149.385 169.438C149.385 169.438 180.149 94.1946 163.978 75.8738C151.206 61.4042 65.0023 74.9908 65.0023 74.9908Z" fill="#FFD15F"/>
<path d="M130.617 112.011L137.413 109.126" stroke="#1A0000" stroke-width="0.5" stroke-miterlimit="10" stroke-linecap="round" stroke-linejoin="round"/>
<path d="M65.0023 74.9908C65.0023 74.9908 127.207 54.3251 145.612 59.0327C166.338 64.3344 200.803 127.854 200.803 127.854C192.418 135.742 176.402 138.555 176.402 138.555L112.902 76.4515L65.0023 74.9908Z" fill="#FFD15F"/>
<path d="M115.653 76.4516L80.208 74.2302" stroke="#1A0000" stroke-width="0.5" stroke-miterlimit="10" stroke-linecap="round" stroke-linejoin="round"/>
<path d="M176.403 138.553L112.903 76.4515" stroke="#1A0000" stroke-width="0.5" stroke-miterlimit="10" stroke-linecap="round" stroke-linejoin="round"/>
<path d="M115.626 6.39662C115.548 5.73942 116.038 5.14404 116.729 5.057L137.472 2.43579C138.181 2.34623 138.829 2.82683 138.912 3.50168L142.361 32.0171C142.441 32.668 141.96 33.2621 141.278 33.358L120.501 36.2706C119.785 36.3715 119.124 35.8884 119.043 35.2047L115.626 6.39662Z" fill="#1A0000"/>
<path d="M113.938 24.3628L117.326 20.7337L130.504 20.5105C131.625 21.8072 130.648 22.6889 130.648 22.6889C132.148 23.9516 130.28 25.6255 130.28 25.6255C131.977 27.0345 129.881 28.0524 129.881 28.0524C131.313 30.1729 128.73 30.217 128.73 30.217C127.942 32.9379 122.119 33.0375 122.119 33.0375L113.938 24.3628Z" fill="#FF918C"/>
<path d="M124.09 30.1199C124.09 30.1199 120.503 37.8751 114.847 46.3757C108.192 56.385 98.6734 67.4274 88.7881 68.0467C74.7548 68.9285 60.1267 53.9215 52.3393 43.3445C49.7342 39.8101 51.3208 32.205 55.7981 31.4684L56.0305 31.4343L64.1127 31.3914L88.2078 46.0452L101.482 34.8325L114.292 24.0185L124.09 30.1199Z" fill="#FF918C"/>
<path d="M101.216 34.545L104.196 31.8846C110.459 32.0928 117.634 43.453 117.634 43.453L114.166 47.3886L101.216 34.545Z" fill="#57C497"/>
<path d="M115.375 46.9144C108.721 56.9237 98.6734 67.4274 88.7894 68.0455C74.7561 68.9272 60.999 57.7587 52.7389 47.5098C47.1583 40.5859 50.0555 32.3627 55.7994 31.4671L56.0318 31.4331L64.4499 31.1543L88.1308 45.5445L101.083 34.0947C107.426 37.7805 113.466 44.6766 115.375 46.9144Z" fill="#BFE4EF"/>
<path d="M115.375 46.9143C108.721 56.9236 98.6734 67.4274 88.7894 68.0455C78.041 68.7203 67.4546 62.3262 59.3751 54.6909" stroke="#1A0000" stroke-width="0.5" stroke-miterlimit="10" stroke-linecap="round" stroke-linejoin="round"/>
<path d="M73.7191 36.7865L88.1308 45.5444L101.083 34.0934" stroke="#1A0000" stroke-width="0.5" stroke-miterlimit="10" stroke-linecap="round" stroke-linejoin="round"/>
<path d="M88.1308 45.5444L84.9879 48.6816" stroke="#1A0000" stroke-width="0.5" stroke-miterlimit="10" stroke-linecap="round" stroke-linejoin="round"/>
<path d="M116.952 53.2252L113.535 57.4093" stroke="#1A0000" stroke-width="0.5" stroke-miterlimit="10" stroke-linecap="round" stroke-linejoin="round"/>
<path d="M108.01 90.2955L112.903 147.886H105.506L104.493 90.2955H108.01Z" fill="#1A0000"/>
<path d="M134.312 90.7761H29.6515L29.0885 83.9166C29.0885 83.9166 128.766 78.6287 131.824 79.5912C134.882 80.5524 134.312 90.7761 134.312 90.7761Z" fill="#1A0000"/>
<path d="M22.3652 249.001C15.6952 249.001 10.7813 247.655 7.62337 244.964C4.46548 242.272 2.88654 238.431 2.88654 233.44C2.88654 228.421 4.46548 224.454 7.62337 221.538C10.7813 218.622 15.6952 217.164 22.3652 217.164C31.6912 217.164 37.9333 220.206 41.0911 226.29C38.435 227.16 35.3214 228.463 31.7503 230.202C30.8944 228.631 29.5368 227.468 27.6775 226.711C25.8477 225.954 23.9737 225.575 22.0553 225.575C19.2219 225.575 17.1118 226.29 15.7247 227.72C14.3376 229.122 13.6441 230.861 13.6441 232.935C13.6441 235.178 14.3818 237.015 15.8575 238.445C17.3627 239.847 19.6499 240.548 22.7193 240.548C25.1689 240.548 27.1168 240.169 28.5629 239.412C30.0091 238.627 31.0714 237.393 31.7503 235.711C34.1703 236.945 37.2692 238.333 41.0469 239.875C39.5712 243.267 37.1068 245.637 33.6538 246.982C30.2008 248.328 26.4379 249.001 22.3652 249.001ZM58.9034 249.001C53.8568 249.001 50.1381 247.908 47.7475 245.721C45.3865 243.506 44.2059 240.604 44.2059 237.015C44.2059 233.51 45.3865 230.664 47.7475 228.477C50.1381 226.29 53.8568 225.197 58.9034 225.197C62.2974 225.197 65.1307 225.73 67.4032 226.795C69.7053 227.832 71.4023 229.248 72.4942 231.043C73.5862 232.809 74.1322 234.8 74.1322 237.015C74.1322 240.632 72.8631 243.534 70.3251 245.721C67.8164 247.908 64.0092 249.001 58.9034 249.001ZM59.0805 241.851C60.9989 241.851 62.4302 241.417 63.3747 240.548C64.3191 239.678 64.7913 238.515 64.7913 237.057C64.7913 235.683 64.3191 234.561 63.3747 233.692C62.4302 232.795 60.9989 232.347 59.0805 232.347C57.1621 232.347 55.7603 232.781 54.8749 233.65C53.9895 234.519 53.5469 235.655 53.5469 237.057C53.5469 238.515 53.9895 239.678 54.8749 240.548C55.7603 241.417 57.1621 241.851 59.0805 241.851ZM94.5107 248.58C94.6878 244.459 94.7764 240.66 94.7764 237.183C94.7764 235.949 94.4517 234.968 93.8024 234.239C93.1826 233.51 92.3858 233.146 91.4119 233.146C90.438 233.146 89.6116 233.566 88.9328 234.407C88.2539 235.22 87.8556 236.342 87.7374 237.772C87.6784 239.903 87.649 241.417 87.649 242.314C87.649 244.221 87.7079 246.309 87.826 248.58H77.2456C77.4817 244.543 77.5997 240.73 77.5997 237.141C77.5997 233.552 77.4817 229.711 77.2456 225.617C79.1934 225.702 80.6839 225.744 81.7169 225.744C82.8088 225.744 84.2993 225.702 86.188 225.617L87.4718 231.8C88.1506 229.557 89.2131 227.903 90.6593 226.837C92.1054 225.744 93.7877 225.197 95.7059 225.197C97.4768 225.197 99.0114 225.575 100.31 226.332C101.609 227.061 102.582 228.057 103.232 229.318C103.911 230.58 104.25 231.996 104.25 233.566V239.622C104.25 243.351 104.324 246.337 104.471 248.58H94.5107ZM122.326 249.001C119.847 249.001 117.323 248.679 114.756 248.034C112.218 247.361 109.827 246.352 107.584 245.006L112.232 238.992C113.59 239.917 115.228 240.646 117.146 241.178C119.065 241.683 120.717 241.935 122.105 241.935C123.433 241.935 124.451 241.767 125.159 241.431C125.897 241.066 126.266 240.604 126.266 240.043C126.266 239.594 126.089 239.244 125.735 238.992C125.38 238.739 124.893 238.613 124.274 238.613C123.89 238.613 123.447 238.627 122.946 238.655C122.473 238.683 122.09 238.711 121.795 238.739C120.26 238.907 118.681 238.992 117.058 238.992C114.431 238.992 112.291 238.529 110.639 237.604C109.015 236.65 108.204 235.108 108.204 232.977C108.204 230.51 109.429 228.603 111.878 227.258C114.328 225.884 117.928 225.197 122.68 225.197C125.012 225.197 127.358 225.519 129.719 226.164C132.109 226.781 134.22 227.72 136.049 228.982L130.958 233.861C129.276 233.019 127.697 232.431 126.222 232.094C124.775 231.73 123.315 231.547 121.839 231.547C120.806 231.547 119.92 231.744 119.183 232.136C118.445 232.529 118.076 232.977 118.076 233.482C118.076 233.875 118.224 234.183 118.519 234.407C118.843 234.632 119.256 234.744 119.758 234.744C120.26 234.744 120.953 234.702 121.839 234.618C123.993 234.477 125.602 234.407 126.664 234.407C129.734 234.407 132.109 234.898 133.792 235.879C135.474 236.861 136.315 238.361 136.315 240.379C136.315 243.408 135.076 245.608 132.596 246.982C130.117 248.328 126.694 249.001 122.326 249.001ZM166.639 225.617C166.433 229.15 166.329 232.963 166.329 237.057C166.329 241.178 166.433 245.02 166.639 248.58C164.751 248.496 163.26 248.454 162.168 248.454C161.135 248.454 159.644 248.496 157.696 248.58L156.412 242.398C155.734 244.641 154.671 246.309 153.226 247.403C151.78 248.468 150.097 249.001 148.179 249.001C146.407 249.001 144.872 248.637 143.574 247.908C142.275 247.15 141.287 246.141 140.609 244.879C139.96 243.618 139.634 242.202 139.634 240.632V234.575C139.634 230.847 139.561 227.86 139.413 225.617H149.374C149.197 229.739 149.108 233.819 149.108 237.856C149.108 239.09 149.417 240.071 150.038 240.8C150.687 241.529 151.499 241.893 152.473 241.893C153.388 241.893 154.184 241.515 154.863 240.758C155.572 239.973 155.999 238.907 156.147 237.562V236.594C156.206 234.407 156.236 232.893 156.236 232.052C156.236 230.118 156.177 227.973 156.059 225.617H166.639ZM180.598 231.758C180.568 233.44 180.554 236.02 180.554 239.496C180.554 243.674 180.583 246.702 180.641 248.58H170.195L170.238 243.828C170.298 238.613 170.327 234.59 170.327 231.758C170.327 229.066 170.298 225.253 170.238 220.318L170.195 215.776H180.641C180.583 219.758 180.554 223.01 180.554 225.533C180.554 228.337 180.568 230.412 180.598 231.758ZM204.256 233.146C201.541 232.977 199.062 232.851 196.818 232.767L196.774 237.225C196.774 238.739 197.114 239.931 197.792 240.8C198.5 241.641 199.74 242.062 201.512 242.062C202.19 242.062 202.839 242.006 203.459 241.893C203.341 242.931 203.281 243.982 203.281 245.048C203.281 245.552 203.311 246.702 203.37 248.496C202.072 248.721 200.98 248.861 200.095 248.917C199.209 248.973 198.058 249.001 196.641 249.001C193.188 249.001 190.739 248.216 189.292 246.646C187.877 245.048 187.167 242.833 187.167 240.001L187.211 232.893C185.825 232.949 184.379 233.033 182.873 233.146V225.702C184.408 225.702 185.707 225.239 186.769 224.314C187.831 223.388 188.466 222.281 188.673 220.991H200.713C199.209 222.954 197.541 224.524 195.712 225.702H204.256V233.146ZM235.276 241.599C235.276 242.552 235.394 243.225 235.629 243.618C235.865 244.01 236.338 244.291 237.045 244.459L236.869 248.412C235.925 248.552 235.098 248.651 234.39 248.707C233.711 248.763 232.797 248.791 231.645 248.791C229.107 248.791 227.424 248.258 226.599 247.193C225.771 246.099 225.358 244.711 225.358 243.029V241.978C224.503 244.277 223.249 245.987 221.595 247.108C219.973 248.23 217.892 248.791 215.354 248.791C212.402 248.791 210.174 248.23 208.67 247.108C207.193 245.987 206.456 244.319 206.456 242.104C206.456 240.281 207.091 238.851 208.359 237.814C209.628 236.777 211.591 236.062 214.248 235.669C212.004 234.155 209.761 232.837 207.518 231.716C209.288 229.585 211.31 227.973 213.584 226.879C215.855 225.758 218.615 225.197 221.861 225.197C226.406 225.197 229.771 226.136 231.955 228.015C234.168 229.865 235.276 232.725 235.276 236.594V241.599ZM222.792 232.599C221.286 232.599 219.958 232.837 218.807 233.314C217.656 233.791 216.623 234.505 215.708 235.459C217.479 235.262 219.693 235.164 222.348 235.164C223.441 235.164 224.207 235.038 224.651 234.786C225.093 234.533 225.315 234.211 225.315 233.819C225.315 233.482 225.093 233.202 224.651 232.977C224.207 232.725 223.588 232.599 222.792 232.599ZM218.143 241.935C219.795 241.935 221.286 241.641 222.614 241.052C223.942 240.436 224.856 239.636 225.358 238.655V237.562C224.651 237.898 223.869 238.164 223.012 238.361C222.157 238.529 221.124 238.697 219.913 238.865L218.32 239.118C216.667 239.426 215.841 239.959 215.841 240.716C215.841 241.529 216.608 241.935 218.143 241.935Z" fill="#287F61"/>
<path d="M26.3051 281.912H11.8733C12.1094 283.146 12.6849 284.155 13.5997 284.94C14.5442 285.697 15.8722 286.076 17.584 286.076C18.8236 286.076 19.9894 285.852 21.0814 285.403C22.1733 284.926 23.044 284.268 23.6932 283.426C25.6706 284.352 28.2973 285.347 31.5732 286.412C30.6584 288.375 28.9908 289.945 26.5708 291.123C24.1801 292.272 21.0518 292.847 17.1857 292.847C12.1684 292.847 8.44975 291.754 6.02967 289.567C3.63911 287.352 2.44385 284.45 2.44385 280.861C2.44385 277.356 3.63911 274.51 6.02967 272.323C8.42023 270.136 12.1389 269.043 17.1857 269.043C20.1959 269.043 22.8079 269.52 25.0213 270.473C27.2348 271.426 28.9319 272.758 30.1124 274.468C31.2928 276.151 31.8831 278.085 31.8831 280.272C31.8831 281.001 31.8536 281.548 31.7945 281.912H26.3051ZM17.8053 275.394C16.3298 275.394 15.1197 275.66 14.1753 276.193C13.2309 276.725 12.5668 277.454 12.1832 278.38H22.6308C22.2766 277.482 21.701 276.767 20.9042 276.235C20.1074 275.674 19.0744 275.394 17.8053 275.394ZM52.2298 292.427C52.4068 288.305 52.4954 284.506 52.4954 281.029C52.4954 279.796 52.1708 278.814 51.5215 278.085C50.9017 277.356 50.1049 276.992 49.1309 276.992C48.157 276.992 47.3306 277.412 46.6519 278.253C45.9731 279.067 45.5746 280.188 45.4566 281.618C45.3975 283.749 45.368 285.263 45.368 286.16C45.368 288.067 45.4271 290.156 45.5451 292.427H34.9646C35.2008 288.389 35.3189 284.576 35.3189 280.987C35.3189 277.398 35.2008 273.557 34.9646 269.464C36.9126 269.548 38.4029 269.59 39.4359 269.59C40.5279 269.59 42.0183 269.548 43.9072 269.464L45.1909 275.646C45.8698 273.403 46.9323 271.749 48.3784 270.683C49.8244 269.59 51.5067 269.043 53.4251 269.043C55.1958 269.043 56.7306 269.421 58.0292 270.179C59.3277 270.908 60.3017 271.903 60.951 273.165C61.6297 274.426 61.9691 275.842 61.9691 277.412V283.469C61.9691 287.198 62.0429 290.184 62.1904 292.427H52.2298ZM97.7257 292.847C92.679 292.847 88.9604 291.754 86.5699 289.567C84.2088 287.352 83.0283 284.45 83.0283 280.861C83.0283 277.356 84.2088 274.51 86.5699 272.323C88.9604 270.136 92.679 269.043 97.7257 269.043C101.12 269.043 103.953 269.576 106.226 270.641C108.528 271.679 110.225 273.094 111.316 274.889C112.409 276.655 112.955 278.646 112.955 280.861C112.955 284.478 111.685 287.38 109.147 289.567C106.639 291.754 102.832 292.847 97.7257 292.847ZM97.9029 285.697C99.8213 285.697 101.253 285.263 102.197 284.394C103.141 283.525 103.614 282.361 103.614 280.903C103.614 279.529 103.141 278.408 102.197 277.539C101.253 276.641 99.8213 276.193 97.9029 276.193C95.9845 276.193 94.5826 276.627 93.6973 277.496C92.8119 278.366 92.3692 279.501 92.3692 280.903C92.3692 282.361 92.8119 283.525 93.6973 284.394C94.5826 285.263 95.9845 285.697 97.9029 285.697ZM133.333 292.427C133.511 288.305 133.598 284.506 133.598 281.029C133.598 279.796 133.274 278.814 132.625 278.085C132.005 277.356 131.208 276.992 130.234 276.992C129.26 276.992 128.434 277.412 127.755 278.253C127.076 279.067 126.678 280.188 126.56 281.618C126.501 283.749 126.471 285.263 126.471 286.16C126.471 288.067 126.53 290.156 126.648 292.427H116.068C116.304 288.389 116.422 284.576 116.422 280.987C116.422 277.398 116.304 273.557 116.068 269.464C118.016 269.548 119.506 269.59 120.539 269.59C121.631 269.59 123.121 269.548 125.01 269.464L126.294 275.646C126.973 273.403 128.035 271.749 129.482 270.683C130.928 269.59 132.61 269.043 134.528 269.043C136.299 269.043 137.834 269.421 139.133 270.179C140.431 270.908 141.404 271.903 142.054 273.165C142.733 274.426 143.072 275.842 143.072 277.412V283.469C143.072 287.198 143.146 290.184 143.294 292.427H133.333ZM157.253 275.604C157.223 277.286 157.208 279.866 157.208 283.342C157.208 287.52 157.238 290.548 157.297 292.427H146.85L146.893 287.674C146.952 282.459 146.982 278.436 146.982 275.604C146.982 272.912 146.952 269.099 146.893 264.164L146.85 259.622H157.297C157.238 263.604 157.208 266.856 157.208 269.379C157.208 272.183 157.223 274.258 157.253 275.604ZM166.789 266.982C164.929 266.982 163.542 266.548 162.628 265.678C161.742 264.809 161.298 263.674 161.298 262.272C161.298 260.898 161.742 259.762 162.628 258.865C163.542 257.968 164.929 257.519 166.789 257.519C168.559 257.519 169.917 257.982 170.861 258.907C171.805 259.804 172.278 260.926 172.278 262.272C172.278 263.674 171.82 264.809 170.905 265.678C169.99 266.548 168.618 266.982 166.789 266.982ZM161.653 292.427C161.86 287.912 161.964 284.184 161.964 281.239C161.964 277.735 161.845 273.809 161.609 269.464H172.234C171.998 273.641 171.879 277.567 171.879 281.239C171.879 284.324 171.983 288.053 172.189 292.427H161.653ZM193.512 292.427C193.69 288.305 193.777 284.506 193.777 281.029C193.777 279.796 193.453 278.814 192.804 278.085C192.184 277.356 191.387 276.992 190.413 276.992C189.439 276.992 188.613 277.412 187.934 278.253C187.255 279.067 186.857 280.188 186.739 281.618C186.68 283.749 186.65 285.263 186.65 286.16C186.65 288.067 186.709 290.156 186.828 292.427H176.247C176.483 288.389 176.601 284.576 176.601 280.987C176.601 277.398 176.483 273.557 176.247 269.464C178.194 269.548 179.685 269.59 180.718 269.59C181.81 269.59 183.301 269.548 185.189 269.464L186.473 275.646C187.152 273.403 188.214 271.749 189.661 270.683C191.107 269.59 192.789 269.043 194.707 269.043C196.478 269.043 198.013 269.421 199.311 270.179C200.61 270.908 201.583 271.903 202.232 273.165C202.912 274.426 203.251 275.842 203.251 277.412V283.469C203.251 287.198 203.325 290.184 203.473 292.427H193.512ZM230.446 281.912H216.015C216.251 283.146 216.826 284.155 217.741 284.94C218.686 285.697 220.014 286.076 221.726 286.076C222.966 286.076 224.132 285.852 225.223 285.403C226.314 284.926 227.185 284.268 227.835 283.426C229.812 284.352 232.439 285.347 235.715 286.412C234.8 288.375 233.133 289.945 230.712 291.123C228.322 292.272 225.194 292.847 221.327 292.847C216.31 292.847 212.592 291.754 210.171 289.567C207.781 287.352 206.585 284.45 206.585 280.861C206.585 277.356 207.781 274.51 210.171 272.323C212.561 270.136 216.28 269.043 221.327 269.043C224.337 269.043 226.949 269.52 229.162 270.473C231.376 271.426 233.073 272.758 234.254 274.468C235.435 276.151 236.024 278.085 236.024 280.272C236.024 281.001 235.995 281.548 235.935 281.912H230.446ZM221.947 275.394C220.471 275.394 219.261 275.66 218.317 276.193C217.372 276.725 216.708 277.454 216.324 278.38H226.772C226.418 277.482 225.843 276.767 225.046 276.235C224.248 275.674 223.215 275.394 221.947 275.394Z" fill="#287F61"/>
</svg>
