<svg width="154" height="99" viewBox="0 0 154 99" fill="none" xmlns="http://www.w3.org/2000/svg">
<g opacity="0.05">
<path d="M44.5826 4.39935C35.9928 5.05534 27.9246 10.545 23.7514 18.5205C23.0211 19.9706 22.2212 21.7659 22.0126 22.56L21.63 23.9756L18.9175 24.1828C10.1538 24.8387 2.81591 31.1225 0.590211 39.7885C-2.22669 50.7678 5.3546 62.6793 16.6222 64.9925C18.7088 65.4068 24.8643 65.5104 54.3548 65.5795L89.6182 65.6485L91.531 67.582C92.7134 68.7559 94.0349 69.6881 95.0086 70.0333L96.5736 70.5857L96.6779 74.211C96.7474 77.2838 96.8866 77.9398 97.443 78.4577C98.521 79.4244 99.7382 78.8375 104.92 74.8324L109.789 71.0691L114.657 71.0346C117.822 71 119.978 70.8274 120.848 70.5512C123.943 69.4464 126.551 66.7879 127.316 63.9567C127.49 63.1972 127.733 58.6052 127.768 53.7716C127.872 45.1401 127.872 44.9329 127.038 43.1721C126.134 41.1005 124.151 39.167 121.995 38.2003C120.709 37.6134 119.596 37.5443 109.789 37.5443H99.0079L98.4167 34.9203C95.878 23.8375 85.9319 16.6216 74.9773 17.8645C73.4471 18.0371 71.8474 18.3133 71.3605 18.486C70.5607 18.7967 70.4216 18.6586 69.274 16.6906C67.6395 13.8249 63.049 9.30203 60.1973 7.71384C57.3108 6.12564 53.3463 4.77913 50.8424 4.53745C49.7991 4.43387 48.6167 4.33028 48.2341 4.26123C47.8516 4.22671 46.2171 4.26124 44.5826 4.39935ZM53.9723 8.64604C60.0234 10.614 64.5096 14.3774 67.2221 19.8325C68.1611 21.6969 68.8566 22.6981 69.2392 22.6981C69.5522 22.6981 70.6302 22.3874 71.6388 22.0076C76.1249 20.3158 80.6459 20.4885 84.8191 22.5255C90.5572 25.3566 94.3479 30.5355 95.4955 37.13C95.6694 38.1658 95.5998 38.3039 94.487 38.7873C91.612 39.5519 90.592 41.5148 89.6878 43.2066C88.9575 44.5186 88.9227 45.2091 88.7488 53.4263L88.575 62.2304L80.0547 62.4376C75.3599 62.5412 59.3974 62.5412 44.5826 62.4031L17.6307 62.1959L15.2312 61.2982C4.69385 57.3277 0.311999 46.3139 5.31983 36.405C7.33687 32.469 11.8926 28.8783 16.1006 27.9116C16.9352 27.7044 18.987 27.5318 20.6215 27.5318C22.7777 27.5318 23.7514 27.3937 24.0296 27.0484C24.2383 26.7722 24.7599 25.4257 25.1425 24.0446C26.7422 18.2788 30.4285 13.5487 35.7146 10.4759C41.6614 7.02332 47.2256 6.4709 53.9723 8.64604ZM119.804 41.0315C121.439 41.4803 123.491 43.2066 124.082 44.6912C124.464 45.5198 124.569 47.9021 124.569 53.9442C124.569 62.6447 124.395 63.646 122.726 65.4759C121.126 67.2022 119.63 67.582 113.962 67.582C108.015 67.582 108.884 67.2712 103.633 71.4489C101.79 72.9335 100.19 74.1419 100.086 74.1419C99.9817 74.1419 99.8773 72.7609 99.8773 71.0346C99.8773 67.7201 99.5991 67.2367 97.7907 67.2367C96.6431 67.2367 94.4174 65.9592 93.4784 64.7508C92.0526 62.8864 91.8439 61.1256 91.9483 53.2537C92.0526 44.8984 91.9943 41.9291 96.3758 40.8933L104.374 40.7207C108.791 40.6171 113.892 40.7552 115.527 40.7207C117.161 40.6862 119.074 40.8243 119.804 41.0315Z" fill="black"/>
<path d="M38.62 20.0398C36.6725 20.7649 34.9337 21.9388 34.0991 23.0781C33.6817 23.6651 32.7428 24.4937 32.0125 24.977C30.2388 26.0819 28.6739 28.2225 28.3957 29.9833C28.2218 31.0882 27.874 31.537 26.9003 32.1585C25.231 33.2288 24.5703 33.9538 23.7356 35.8182C22.7271 37.9934 22.7967 40.4447 23.8747 42.5853C24.5703 43.8973 24.7094 44.5878 24.5703 45.6581C24.3616 47.3154 24.7789 48.9726 25.857 50.5263C26.7264 51.7692 29.0912 53.4265 29.9954 53.4265C30.3084 53.4265 30.7605 53.9099 31.0039 54.4623C31.5256 55.7397 34.2034 58.1566 35.8379 58.8471C36.4986 59.1233 38.0636 59.3304 39.3155 59.3304C41.1587 59.3304 41.8542 59.1578 43.1757 58.3292L44.7755 57.3279L46.5838 58.3637C50.6527 60.6424 55.6953 58.8816 57.9558 54.4277C58.4427 53.5301 58.8948 52.149 59.0339 51.3895C59.173 50.5954 59.3469 49.9739 59.4164 49.9739C59.5207 49.9739 61.5378 51.7692 63.9026 53.9444C67.2064 57.0172 68.4235 57.9149 69.1539 57.9149C70.6145 57.9149 83.5861 44.8295 85.0815 41.8603C86.4726 39.0637 86.5421 35.542 85.2206 32.7109C82.369 26.7033 75.2745 25.3568 70.7188 29.9488L69.0495 31.6406L68.1106 30.4667C66.6847 28.6713 63.6244 27.3593 61.0857 27.4284C59.9381 27.4284 58.7209 27.532 58.3731 27.601C57.8862 27.6701 57.5732 27.2903 57.0516 25.9438C56.217 23.7341 54.3042 21.5244 52.4263 20.5577C51.0352 19.8327 49.0214 19.091 45.2623 19.9363C44.5352 20.3075 43.1062 19.9363 41.9586 19.7981C40.5327 19.66 39.4894 19.7291 38.62 20.0398ZM42.6889 23.0436C43.1062 23.0436 43.1757 25.633 43.1757 38.7184V54.3932L42.0977 55.2909C40.3936 56.741 37.7158 56.4648 35.2815 54.6004C34.2729 53.8408 34.2382 53.7027 34.5859 52.7705C35.1076 51.3549 34.5164 50.8025 32.1516 50.4918C30.5518 50.2846 29.9606 50.0429 29.0217 49.1107C28.3261 48.4202 27.874 47.6261 27.874 47.0737C27.874 46.2796 28.0131 46.176 29.1956 46.176C30.6909 46.176 31.3517 45.6927 31.3517 44.5878C31.3517 43.6556 30.8301 43.2068 29.2651 42.8961C26.796 42.3782 25.6483 40.203 26.4482 37.579C26.9698 35.8527 28.1523 34.817 29.9954 34.5062L31.5256 34.23V32.1239C31.5256 30.5357 31.6995 29.7762 32.2211 29.0511C33.334 27.601 34.099 27.4974 36.7768 28.3951C39.3503 29.2583 40.1502 29.1202 40.6023 27.8082C40.8805 26.9105 39.4894 25.5295 37.9245 25.2187C36.6725 24.9771 36.6725 24.6663 37.8897 23.8032C39.0721 22.94 39.9415 22.6983 41.2282 22.9055C41.7847 22.9745 42.4454 23.0436 42.6889 23.0436ZM50.8266 23.4579C52.4959 24.3211 53.7478 25.8402 54.339 27.9118C54.7216 29.1202 54.652 29.2928 53.5044 30.7774C52.009 32.7109 51.383 35.1622 51.5917 38.0279C51.8003 40.5828 52.948 42.9651 55.1389 45.3819C56.0083 46.3487 56.7386 47.2118 56.7386 47.3154C56.7386 47.419 56.1474 47.6952 55.4519 47.9023C53.713 48.4547 53.4696 48.731 53.7478 49.8013C53.9217 50.4227 54.2695 50.7335 54.9998 50.9061C55.591 51.0097 56.0431 51.1478 56.0431 51.2514C56.0431 51.3204 55.7301 51.9764 55.3475 52.7014C53.6087 56.1195 49.9919 57.1898 47.4533 55.0147L46.4795 54.1861L46.3752 38.6494C46.3056 23.9758 46.3056 23.0781 46.8968 22.94C48.2531 22.5948 49.366 22.7329 50.8266 23.4579ZM64.2504 31.5025C65.085 31.9858 66.1978 33.0561 66.7195 33.8502C67.7628 35.473 68.4931 36.1635 69.1539 36.1635C69.3973 36.1635 70.4058 35.1622 71.3796 33.9193C74.2312 30.3976 76.7004 29.569 79.6912 31.0536C81.8473 32.1239 82.9602 34.1955 82.9602 37.0266C82.9254 40.1685 82.0907 41.446 75.2397 48.3166L69.1539 54.4277L67.2064 52.7705C62.1985 48.4202 56.8777 42.827 55.7301 40.6864C54.6868 38.7184 54.5825 38.3041 54.7563 36.4742C55.0346 33.2978 56.4256 31.606 59.5207 30.6048C60.8422 30.1905 62.5463 30.5012 64.2504 31.5025Z" fill="black"/>
<path d="M35.5406 33.9189C34.8451 34.782 35.4015 36.0595 36.8274 36.75C37.9054 37.2679 38.1837 37.6132 38.3228 38.5799C38.4619 39.5812 38.6705 39.8228 39.4008 39.8919C39.8877 39.9609 40.4789 39.7538 40.7224 39.4776C41.3483 38.718 41.2788 36.6464 40.5832 35.6107C39.3661 33.7463 36.4796 32.7795 35.5406 33.9189Z" fill="black"/>
<path d="M34.4277 42.0673C34.0452 42.2744 33.8018 42.8268 33.8018 43.4138C33.8018 44.2079 34.0452 44.5531 34.8451 44.9675C35.8188 45.4853 35.9231 45.658 35.8188 47.0735C35.7492 48.3855 35.8536 48.7653 36.4796 49.1796C37.1751 49.663 37.3142 49.6285 38.1488 48.7998C38.8096 48.1439 39.0182 47.5914 39.0182 46.4521C39.0182 44.5531 38.427 43.4483 36.9664 42.4816C35.6449 41.6184 35.2972 41.5494 34.4277 42.0673Z" fill="black"/>
<path d="M115.701 47.9023C115.318 48.0749 113.058 50.1464 110.658 52.5287C108.259 54.911 106.172 56.879 105.998 56.879C105.824 56.879 104.711 55.9468 103.494 54.8075C102.312 53.6681 101.164 52.7359 100.921 52.7359C99.9817 52.7359 99.1819 53.4955 99.1819 54.3931C99.1819 55.1527 99.8079 55.9123 102.103 58.0184C106.311 61.8162 106.068 61.8853 112.327 55.7397C115.075 53.0466 117.474 50.5608 117.648 50.2155C118.379 48.9035 117.092 47.3844 115.701 47.9023Z" fill="black"/>
</g>
</svg>
