<svg width="191" height="78" viewBox="0 0 191 78" fill="none" xmlns="http://www.w3.org/2000/svg">
<path d="M104.387 3.45964C97.5352 3.96857 91.0998 8.2275 87.7711 14.415C87.1886 15.54 86.5506 16.9329 86.3842 17.5489L86.0791 18.6471L83.9155 18.8079C76.9253 19.3168 71.0725 24.1918 69.2972 30.915C67.0504 39.4329 73.0974 48.674 82.0847 50.4686C83.749 50.79 88.6588 50.8704 112.181 50.924L140.308 50.9775L141.834 52.4775C142.777 53.3882 143.831 54.1115 144.608 54.3793L145.856 54.8079L145.939 57.6204C145.995 60.0043 146.106 60.5132 146.549 60.915C147.409 61.665 148.38 61.2097 152.513 58.1025L156.397 55.1829L160.28 55.1561C162.804 55.1293 164.524 54.9954 165.218 54.7811C167.686 53.924 169.767 51.8615 170.377 49.665C170.516 49.0757 170.71 45.5132 170.738 41.7632C170.821 35.0668 170.821 34.9061 170.155 33.54C169.434 31.9329 167.853 30.4329 166.133 29.6829C165.107 29.2275 164.219 29.1739 156.397 29.1739H147.798L147.326 27.1382C145.301 18.54 137.368 12.9418 128.63 13.9061C127.41 14.04 126.134 14.2543 125.745 14.3882C125.107 14.6293 124.996 14.5221 124.081 12.9954C122.777 10.7721 119.116 7.26321 116.841 6.03107C114.539 4.79893 111.377 3.75428 109.38 3.56678C108.547 3.48643 107.604 3.40607 107.299 3.35249C106.994 3.32571 105.69 3.3525 104.387 3.45964ZM111.876 6.75429C116.703 8.28107 120.281 11.2007 122.444 15.4329C123.193 16.8793 123.748 17.6561 124.053 17.6561C124.303 17.6561 125.163 17.415 125.967 17.1204C129.546 15.8079 133.152 15.9418 136.48 17.5221C141.057 19.7186 144.081 23.7364 144.996 28.8525C145.135 29.6561 145.079 29.7632 144.192 30.1382C141.898 30.7315 141.085 32.2543 140.364 33.5668C139.781 34.5847 139.753 35.1204 139.615 41.4954L139.476 48.3257L132.68 48.4865C128.935 48.5668 116.203 48.5668 104.387 48.4597L82.8891 48.299L80.9752 47.6025C72.5703 44.5222 69.0753 35.9775 73.0696 28.29C74.6785 25.2364 78.3123 22.4507 81.6686 21.7007C82.3344 21.54 83.9709 21.4061 85.2747 21.4061C86.9945 21.4061 87.7711 21.2989 87.993 21.0311C88.1595 20.8168 88.5756 19.7721 88.8807 18.7007C90.1567 14.2275 93.097 10.5579 97.3132 8.17393C102.057 5.49535 106.495 5.06679 111.876 6.75429ZM164.385 31.8793C165.689 32.2275 167.326 33.5668 167.797 34.7186C168.102 35.3614 168.186 37.2097 168.186 41.8972C168.186 48.6472 168.047 49.424 166.715 50.8436C165.439 52.1829 164.247 52.4775 159.725 52.4775C154.982 52.4775 155.675 52.2365 151.487 55.4775C150.017 56.6293 148.741 57.5668 148.658 57.5668C148.574 57.5668 148.491 56.4954 148.491 55.1561C148.491 52.5847 148.269 52.2097 146.827 52.2097C145.911 52.2097 144.136 51.2186 143.387 50.2811C142.25 48.8347 142.083 47.4686 142.167 41.3615C142.25 34.8793 142.203 32.5757 145.698 31.7722L152.078 31.6382C155.601 31.5579 159.67 31.665 160.973 31.6382C162.277 31.6114 163.803 31.7186 164.385 31.8793Z" fill="black"/>
<path d="M99.6307 15.5938C98.0773 16.1563 96.6904 17.067 96.0247 17.9509C95.6918 18.4063 94.9429 19.0491 94.3604 19.4241C92.9457 20.2813 91.6974 21.942 91.4755 23.308C91.3368 24.1652 91.0595 24.5134 90.2828 24.9955C88.9513 25.8259 88.4243 26.3884 87.7586 27.8348C86.9541 29.5223 87.0096 31.4241 87.8695 33.0848C88.4243 34.1027 88.5352 34.6384 88.4243 35.4688C88.2579 36.7545 88.5907 38.0402 89.4506 39.2456C90.1441 40.2098 92.0303 41.4956 92.7515 41.4956C93.0012 41.4956 93.3618 41.8706 93.5559 42.2991C93.972 43.2902 96.1079 45.1652 97.4116 45.7009C97.9387 45.9152 99.1869 46.0759 100.185 46.0759C101.656 46.0759 102.21 45.942 103.264 45.2991L104.54 44.5223L105.983 45.3259C109.228 47.0938 113.25 45.7277 115.053 42.2723C115.442 41.5759 115.802 40.5045 115.913 39.9152C116.024 39.2991 116.163 38.817 116.218 38.817C116.302 38.817 117.91 40.2098 119.797 41.8973C122.432 44.2813 123.403 44.9777 123.985 44.9777C125.15 44.9777 135.497 34.8259 136.69 32.5223C137.799 30.3527 137.855 27.6205 136.801 25.4241C134.526 20.7634 128.867 19.7188 125.234 23.2813L123.902 24.5938L123.153 23.683C122.016 22.2902 119.575 21.2723 117.55 21.3259C116.635 21.3259 115.664 21.4063 115.386 21.4598C114.998 21.5134 114.748 21.2188 114.332 20.1741C113.666 18.4598 112.141 16.7455 110.643 15.9955C109.533 15.433 107.927 14.8576 104.929 15.5134C104.349 15.8014 103.209 15.5134 102.294 15.4063C101.156 15.2991 100.324 15.3527 99.6307 15.5938ZM102.876 17.9241C103.209 17.9241 103.264 19.933 103.264 30.0848V42.2456L102.405 42.942C101.045 44.067 98.9095 43.8527 96.9678 42.4063C96.1634 41.817 96.1356 41.7098 96.413 40.9866C96.8291 39.8884 96.3575 39.4598 94.4713 39.2188C93.1953 39.0581 92.7238 38.8706 91.9748 38.1473C91.4201 37.6116 91.0595 36.9956 91.0595 36.567C91.0595 35.9509 91.1704 35.8706 92.1135 35.8706C93.3063 35.8706 93.8333 35.4956 93.8333 34.6384C93.8333 33.9152 93.4172 33.567 92.169 33.3259C90.1996 32.9241 89.2842 31.2366 89.9222 29.2009C90.3383 27.8616 91.2814 27.058 92.7515 26.817L93.972 26.6027V24.9688C93.972 23.7366 94.1107 23.1473 94.5268 22.5848C95.4144 21.4598 96.0247 21.3795 98.1606 22.0759C100.213 22.7455 100.851 22.6384 101.212 21.6205C101.434 20.9241 100.324 19.8527 99.0759 19.6116C98.0773 19.4241 98.0773 19.183 99.0482 18.5134C99.9913 17.8438 100.685 17.6563 101.711 17.817C102.155 17.8705 102.682 17.9241 102.876 17.9241ZM109.367 18.2455C110.698 18.9152 111.697 20.0938 112.169 21.7009C112.474 22.6384 112.418 22.7723 111.503 23.9241C110.31 25.4241 109.811 27.3259 109.977 29.5491C110.144 31.5313 111.059 33.3795 112.807 35.2545C113.5 36.0045 114.083 36.6741 114.083 36.7545C114.083 36.8348 113.611 37.0491 113.056 37.2098C111.669 37.6384 111.475 37.8527 111.697 38.6831C111.836 39.1652 112.113 39.4063 112.696 39.5402C113.167 39.6206 113.528 39.7277 113.528 39.8081C113.528 39.8616 113.278 40.3706 112.973 40.9331C111.586 43.5848 108.701 44.4152 106.676 42.7277L105.9 42.0848L105.816 30.0313C105.761 18.6473 105.761 17.9509 106.233 17.8438C107.314 17.5759 108.202 17.683 109.367 18.2455ZM120.074 24.4866C120.74 24.8616 121.627 25.692 122.044 26.308C122.876 27.567 123.458 28.1027 123.985 28.1027C124.179 28.1027 124.984 27.3259 125.761 26.3616C128.035 23.6295 130.005 22.9866 132.39 24.1384C134.11 24.9688 134.998 26.5759 134.998 28.7723C134.97 31.2098 134.304 32.2009 128.84 37.5313L123.985 42.2723L122.432 40.9866C118.438 37.6116 114.194 33.2723 113.278 31.6116C112.446 30.0848 112.363 29.7634 112.501 28.3438C112.723 25.8795 113.833 24.567 116.302 23.7902C117.356 23.4688 118.715 23.7098 120.074 24.4866Z" fill="black"/>
<path d="M97.1744 26.3615C96.6197 27.0312 97.0635 28.0223 98.2008 28.558C99.0607 28.9598 99.2826 29.2276 99.3935 29.9776C99.5045 30.7544 99.6709 30.9419 100.253 30.9955C100.642 31.049 101.113 30.8883 101.307 30.674C101.807 30.0848 101.751 28.4776 101.197 27.674C100.226 26.2276 97.9234 25.4776 97.1744 26.3615Z" fill="black"/>
<path d="M96.2869 32.683C95.9818 32.8437 95.7876 33.2723 95.7876 33.7276C95.7876 34.3437 95.9818 34.6115 96.6198 34.933C97.3964 35.3348 97.4797 35.4687 97.3964 36.5669C97.341 37.5848 97.4242 37.8794 97.9235 38.2008C98.4782 38.5758 98.5892 38.549 99.2549 37.9062C99.782 37.3973 99.9484 36.9687 99.9484 36.0848C99.9484 34.6115 99.4768 33.7544 98.3118 33.0044C97.2577 32.3348 96.9804 32.2812 96.2869 32.683Z" fill="black"/>
<path d="M161.112 37.2098C160.807 37.3438 159.004 38.9509 157.09 40.7991C155.176 42.6473 153.512 44.1741 153.373 44.1741C153.234 44.1741 152.347 43.4509 151.376 42.567C150.433 41.683 149.518 40.9598 149.323 40.9598C148.574 40.9598 147.936 41.5491 147.936 42.2455C147.936 42.8348 148.436 43.4241 150.266 45.058C153.623 48.0045 153.429 48.058 158.422 43.2902C160.613 41.2009 162.527 39.2723 162.666 39.0045C163.248 37.9866 162.222 36.808 161.112 37.2098Z" fill="black"/>
<g clip-path="url(#clip0_683_962)">
<path d="M42.5659 66.5458H38.0174V63.8397H42.5659C43.3098 63.8397 43.9123 63.7144 44.3732 63.4639C44.8422 63.2049 45.1859 62.8541 45.4042 62.4115C45.6225 61.9605 45.7317 61.4468 45.7317 60.8705C45.7317 60.3109 45.6225 59.7889 45.4042 59.3045C45.1859 58.82 44.8422 58.4275 44.3732 58.1268C43.9123 57.8261 43.3098 57.6758 42.5659 57.6758H39.109V73.1983H35.7734V54.9572H42.5659C43.9406 54.9572 45.1131 55.2119 46.0834 55.7214C47.0619 56.2225 47.8058 56.9199 48.3153 57.8136C48.8327 58.6989 49.0916 59.7096 49.0916 60.8454C49.0916 62.0231 48.8327 63.0379 48.3153 63.8898C47.8058 64.7417 47.0619 65.3974 46.0834 65.8567C45.1131 66.3161 43.9406 66.5458 42.5659 66.5458ZM58.6859 69.49C58.6859 69.206 58.6131 68.9513 58.4676 68.7258C58.322 68.5002 58.0471 68.2956 57.6427 68.1119C57.2465 67.9197 56.6643 67.7401 55.8961 67.5731C55.2169 67.4227 54.5902 67.2349 54.016 67.0094C53.442 66.7838 52.9486 66.5124 52.5363 66.195C52.1239 65.8693 51.8005 65.4893 51.566 65.0549C51.3395 64.6123 51.2263 64.1028 51.2263 63.5265C51.2263 62.9669 51.3435 62.4407 51.578 61.9479C51.8125 61.4468 52.1522 61.0083 52.5969 60.6325C53.0417 60.2483 53.5834 59.9476 54.2222 59.7304C54.8611 59.5049 55.5808 59.3922 56.3813 59.3922C57.4973 59.3922 58.4554 59.5801 59.256 59.9559C60.0646 60.3318 60.6833 60.8496 61.1118 61.5094C61.5404 62.1609 61.7547 62.8959 61.7547 63.7144H58.5525C58.5525 63.3553 58.4717 63.0295 58.3099 62.7372C58.1563 62.4449 57.9177 62.211 57.5943 62.0356C57.2708 61.8519 56.8625 61.76 56.3692 61.76C55.9245 61.76 55.5484 61.8352 55.2411 61.9855C54.942 62.1359 54.7156 62.3321 54.5619 62.5743C54.4083 62.8166 54.3314 63.0838 54.3314 63.3762C54.3314 63.5933 54.3719 63.7896 54.4528 63.965C54.5417 64.132 54.6832 64.2866 54.8773 64.4285C55.0713 64.5705 55.3341 64.7 55.6656 64.8169C56.0053 64.9338 56.4218 65.0466 56.915 65.1552C57.8935 65.3556 58.7465 65.6229 59.4744 65.957C60.2102 66.2827 60.7842 66.717 61.1967 67.2599C61.6091 67.8029 61.8153 68.496 61.8153 69.3396C61.8153 69.9409 61.6899 70.4922 61.4393 70.9933C61.1886 71.4862 60.8247 71.9163 60.3477 72.2837C59.8706 72.6513 59.3005 72.9394 58.6373 73.1482C57.9743 73.3487 57.2264 73.4489 56.3935 73.4489C55.1885 73.4489 54.1697 73.2276 53.3368 72.7848C52.504 72.3339 51.8733 71.766 51.4446 71.081C51.0161 70.3878 50.8017 69.6695 50.8017 68.9262H53.8705C53.8948 69.4524 54.0322 69.8742 54.283 70.1915C54.5336 70.5089 54.849 70.7386 55.229 70.8806C55.6172 71.0142 56.0256 71.081 56.4541 71.081C56.9392 71.081 57.3476 71.0142 57.6791 70.8806C58.0107 70.7386 58.2614 70.5507 58.4312 70.3168C58.601 70.0746 58.6859 69.799 58.6859 69.49ZM67.6496 59.6427V73.1983H64.4352V59.6427H67.6496ZM64.2169 56.0972C64.2169 55.6045 64.3786 55.1952 64.702 54.8695C65.0337 54.5437 65.4783 54.3809 66.0364 54.3809C66.5943 54.3809 67.035 54.5437 67.3584 54.8695C67.6899 55.1952 67.8557 55.6045 67.8557 56.0972C67.8557 56.5817 67.6899 56.9867 67.3584 57.3125C67.035 57.6382 66.5943 57.8011 66.0364 57.8011C65.4783 57.8011 65.0337 57.6382 64.702 57.3125C64.3786 56.9867 64.2169 56.5817 64.2169 56.0972ZM76.0917 70.8431C76.5444 70.8431 76.9488 70.7511 77.3045 70.5674C77.6604 70.3836 77.9433 70.1248 78.1536 69.7907C78.3719 69.4565 78.4892 69.0682 78.5053 68.6254H81.5256C81.5094 69.5443 81.2587 70.367 80.7736 71.0936C80.2884 71.8202 79.6414 72.3965 78.8329 72.8224C78.0324 73.2401 77.1347 73.4489 76.1401 73.4489C75.1293 73.4489 74.248 73.2735 73.4959 72.9228C72.7438 72.5719 72.1172 72.0834 71.6158 71.4569C71.1226 70.8305 70.7506 70.1039 70.4999 69.277C70.2574 68.4501 70.136 67.5647 70.136 66.621V66.2201C70.136 65.2763 70.2574 64.391 70.4999 63.5641C70.7506 62.7372 71.1226 62.0106 71.6158 61.3842C72.1172 60.7577 72.7438 60.2692 73.4959 59.9184C74.248 59.5676 75.1253 59.3922 76.128 59.3922C77.1873 59.3922 78.1172 59.6052 78.9178 60.0311C79.7264 60.4571 80.3571 61.0584 80.81 61.8352C81.2709 62.6119 81.5094 63.5265 81.5256 64.5789H78.5053C78.4892 64.0944 78.3841 63.6601 78.19 63.2759C77.996 62.8917 77.721 62.5827 77.3653 62.3488C77.0094 62.115 76.5768 61.998 76.0673 61.998C75.5255 61.998 75.0727 62.115 74.7089 62.3488C74.353 62.5827 74.0741 62.9043 73.8719 63.3135C73.6779 63.7144 73.5404 64.1654 73.4595 64.6666C73.3867 65.1593 73.3503 65.6772 73.3503 66.2201V66.621C73.3503 67.1722 73.3867 67.6984 73.4595 68.1995C73.5404 68.7006 73.6779 69.1517 73.8719 69.5526C74.0741 69.9452 74.353 70.2583 74.7089 70.4922C75.0727 70.7261 75.5336 70.8431 76.0917 70.8431ZM83.0902 66.5583V66.2952C83.0902 65.3013 83.2277 64.3868 83.5027 63.5516C83.7776 62.708 84.1779 61.9772 84.7035 61.3591C85.2291 60.741 85.8719 60.2608 86.6321 59.9184C87.3922 59.5676 88.2574 59.3922 89.2277 59.3922C90.2143 59.3922 91.0876 59.5676 91.8477 59.9184C92.6159 60.2608 93.2628 60.741 93.7884 61.3591C94.314 61.9772 94.7142 62.708 94.9892 63.5516C95.2642 64.3868 95.4016 65.3013 95.4016 66.2952V66.5583C95.4016 67.5438 95.2642 68.4584 94.9892 69.302C94.7142 70.1372 94.314 70.8681 93.7884 71.4945C93.2628 72.1125 92.62 72.5928 91.8599 72.9352C91.0997 73.2776 90.2304 73.4489 89.2521 73.4489C88.2817 73.4489 87.4123 73.2776 86.6443 72.9352C85.876 72.5928 85.2291 72.1125 84.7035 71.4945C84.1779 70.8681 83.7776 70.1372 83.5027 69.302C83.2277 68.4584 83.0902 67.5438 83.0902 66.5583ZM86.2924 66.2952V66.5583C86.2924 67.1514 86.349 67.7068 86.4623 68.2245C86.5754 68.7424 86.7493 69.1976 86.9838 69.5902C87.2183 69.9827 87.5215 70.2918 87.8935 70.5173C88.2736 70.7344 88.7264 70.8431 89.2521 70.8431C89.7695 70.8431 90.2143 70.7344 90.5863 70.5173C90.9583 70.2918 91.2615 69.9827 91.496 69.5902C91.7385 69.1976 91.9164 68.7424 92.0297 68.2245C92.1428 67.7068 92.1995 67.1514 92.1995 66.5583V66.2952C92.1995 65.7106 92.1428 65.1635 92.0297 64.654C91.9164 64.1362 91.7385 63.681 91.496 63.2885C91.2615 62.8876 90.9542 62.5743 90.5741 62.3488C90.2021 62.115 89.7534 61.998 89.2277 61.998C88.7103 61.998 88.2655 62.115 87.8935 62.3488C87.5215 62.5743 87.2183 62.8876 86.9838 63.2885C86.7493 63.681 86.5754 64.1362 86.4623 64.654C86.349 65.1635 86.2924 65.7106 86.2924 66.2952ZM105.554 54.9572V73.1983H102.231V54.9572H105.554ZM111.036 54.9572V57.6758H96.8086V54.9572H111.036ZM117.768 73.4489C116.774 73.4489 115.88 73.2818 115.088 72.9478C114.295 72.6137 113.62 72.1501 113.062 71.5571C112.512 70.9558 112.088 70.2583 111.788 69.4648C111.497 68.663 111.352 67.8029 111.352 66.884V66.3829C111.352 65.3389 111.497 64.391 111.788 63.539C112.08 62.6788 112.492 61.9396 113.026 61.3215C113.559 60.7035 114.198 60.2274 114.942 59.8933C115.686 59.5592 116.507 59.3922 117.404 59.3922C118.334 59.3922 119.155 59.555 119.867 59.8808C120.578 60.1982 121.173 60.6492 121.65 61.2338C122.127 61.8185 122.487 62.5201 122.729 63.3386C122.972 64.1487 123.093 65.0466 123.093 66.0321V67.4227H112.807V65.1426H119.939V64.8921C119.923 64.3659 119.826 63.8856 119.648 63.4513C119.47 63.0087 119.195 62.6579 118.824 62.399C118.452 62.1317 117.97 61.998 117.38 61.998C116.903 61.998 116.487 62.1066 116.131 62.3238C115.783 62.5326 115.492 62.8333 115.258 63.2258C115.031 63.61 114.861 64.0694 114.748 64.6039C114.635 65.1385 114.578 65.7315 114.578 66.3829V66.884C114.578 67.452 114.651 67.9782 114.797 68.4626C114.95 68.9471 115.173 69.3689 115.464 69.728C115.763 70.0788 116.119 70.3544 116.531 70.5549C116.952 70.747 117.429 70.8431 117.962 70.8431C118.634 70.8431 119.24 70.7094 119.782 70.4421C120.332 70.1665 120.809 69.7614 121.213 69.2269L122.826 70.9558C122.551 71.3734 122.179 71.7743 121.71 72.1585C121.249 72.5426 120.692 72.8559 120.036 73.0981C119.382 73.332 118.625 73.4489 117.768 73.4489ZM132.457 69.49C132.457 69.206 132.384 68.9513 132.239 68.7258C132.093 68.5002 131.818 68.2956 131.414 68.1119C131.018 67.9197 130.435 67.7401 129.667 67.5731C128.988 67.4227 128.361 67.2349 127.787 67.0094C127.213 66.7838 126.72 66.5124 126.307 66.195C125.895 65.8693 125.572 65.4893 125.337 65.0549C125.111 64.6123 124.997 64.1028 124.997 63.5265C124.997 62.9669 125.115 62.4407 125.349 61.9479C125.584 61.4468 125.923 61.0083 126.368 60.6325C126.813 60.2483 127.354 59.9476 127.993 59.7304C128.632 59.5049 129.352 59.3922 130.152 59.3922C131.268 59.3922 132.227 59.5801 133.027 59.9559C133.836 60.3318 134.454 60.8496 134.883 61.5094C135.311 62.1609 135.526 62.8959 135.526 63.7144H132.324C132.324 63.3553 132.243 63.0295 132.081 62.7372C131.927 62.4449 131.689 62.211 131.365 62.0356C131.042 61.8519 130.634 61.76 130.14 61.76C129.696 61.76 129.32 61.8352 129.012 61.9855C128.713 62.1359 128.487 62.3321 128.333 62.5743C128.179 62.8166 128.103 63.0838 128.103 63.3762C128.103 63.5933 128.143 63.7896 128.224 63.965C128.313 64.132 128.454 64.2866 128.648 64.4285C128.842 64.5705 129.105 64.7 129.437 64.8169C129.776 64.9338 130.193 65.0466 130.686 65.1552C131.665 65.3556 132.518 65.6229 133.245 65.957C133.981 66.2827 134.555 66.717 134.968 67.2599C135.38 67.8029 135.586 68.496 135.586 69.3396C135.586 69.9409 135.461 70.4922 135.21 70.9933C134.96 71.4862 134.596 71.9163 134.119 72.2837C133.642 72.6513 133.072 72.9394 132.409 73.1482C131.745 73.3487 130.997 73.4489 130.165 73.4489C128.96 73.4489 127.941 73.2276 127.108 72.7848C126.275 72.3339 125.644 71.766 125.216 71.081C124.787 70.3878 124.573 69.6695 124.573 68.9262H127.642C127.666 69.4524 127.803 69.8742 128.054 70.1915C128.305 70.5089 128.62 70.7386 129 70.8806C129.388 71.0142 129.797 71.081 130.225 71.081C130.71 71.081 131.119 71.0142 131.45 70.8806C131.782 70.7386 132.032 70.5507 132.202 70.3168C132.372 70.0746 132.457 69.799 132.457 69.49ZM144.235 59.6427V62.0231H136.714V59.6427H144.235ZM138.728 56.3102H141.942V69.2895C141.942 69.6904 141.995 69.9994 142.1 70.2166C142.205 70.4338 142.363 70.5799 142.573 70.6551C142.783 70.7303 143.034 70.7679 143.325 70.7679C143.535 70.7679 143.729 70.7553 143.907 70.7303C144.085 70.7051 144.235 70.6801 144.356 70.6551L144.368 73.1357C144.101 73.2276 143.798 73.3027 143.458 73.3612C143.127 73.4196 142.751 73.4489 142.33 73.4489C141.611 73.4489 140.98 73.3237 140.438 73.073C139.896 72.8141 139.476 72.4007 139.177 71.8327C138.877 71.2564 138.728 70.4964 138.728 69.5526V56.3102Z" fill="black"/>
</g>
<defs>
<clipPath id="clip0_683_962">
<rect width="109.301" height="20.5263" fill="white" transform="translate(35.3295 53.9551)"/>
</clipPath>
</defs>
</svg>
