<svg width="231" height="105" viewBox="0 0 231 105" fill="none" xmlns="http://www.w3.org/2000/svg">
<path d="M126.248 4.65736C117.962 5.34246 110.178 11.0756 106.153 19.405C105.448 20.9194 104.677 22.7944 104.475 23.6237L104.106 25.1021L101.49 25.3184C93.0355 26.0035 85.9569 32.566 83.8098 41.6165C81.0925 53.0829 88.4059 65.5228 99.2754 67.9386C101.288 68.3713 107.226 68.4795 135.675 68.5516L169.692 68.6237L171.537 70.643C172.678 71.8689 173.953 72.8425 174.892 73.2031L176.402 73.78L176.502 77.5661C176.57 80.7752 176.704 81.4603 177.241 82.0012C178.28 83.0108 179.455 82.3978 184.453 78.2151L189.15 74.2848L193.847 74.2487C196.9 74.2127 198.979 74.0324 199.818 73.7439C202.804 72.5901 205.32 69.8136 206.058 66.8569C206.226 66.0636 206.461 61.268 206.494 56.2199C206.595 47.2055 206.595 46.9891 205.79 45.1502C204.917 42.9867 203.005 40.9675 200.925 39.9579C199.684 39.3449 198.61 39.2728 189.15 39.2728H178.75L178.18 36.5324C175.731 24.9579 166.136 17.4218 155.569 18.7199C154.093 18.9002 152.549 19.1886 152.08 19.3689C151.308 19.6934 151.174 19.5492 150.067 17.4939C148.49 14.5011 144.062 9.77755 141.311 8.1189C138.526 6.46024 134.702 5.05399 132.286 4.80159C131.28 4.69342 130.139 4.58524 129.77 4.51312C129.401 4.47707 127.825 4.51313 126.248 4.65736ZM135.306 9.09246C141.143 11.1478 145.471 15.078 148.087 20.7752C148.993 22.7223 149.664 23.7679 150.033 23.7679C150.335 23.7679 151.375 23.4434 152.348 23.0468C156.676 21.28 161.037 21.4603 165.063 23.5877C170.598 26.5444 174.255 31.953 175.362 38.8401C175.53 39.9218 175.462 40.066 174.389 40.5708C171.616 41.3694 170.632 43.4194 169.759 45.1862C169.055 46.5564 169.021 47.2776 168.854 55.8593L168.686 65.054L160.467 65.2704C155.938 65.3785 140.539 65.3785 126.248 65.2343L100.248 65.018L97.9335 64.0805C87.7685 59.9338 83.5415 48.4314 88.3723 38.0829C90.3181 33.9723 94.7129 30.2223 98.7722 29.2127C99.5773 28.9963 101.557 28.816 103.133 28.816C105.213 28.816 106.153 28.6718 106.421 28.3112C106.622 28.0228 107.126 26.6165 107.495 25.1742C109.038 19.1526 112.594 14.2126 117.693 11.0035C123.43 7.39774 128.797 6.82082 135.306 9.09246ZM198.812 42.9146C200.389 43.3833 202.368 45.1862 202.938 46.7367C203.307 47.6021 203.408 50.0901 203.408 56.4002C203.408 65.4867 203.24 66.5324 201.63 68.4435C200.087 70.2463 198.644 70.643 193.176 70.643C187.439 70.643 188.278 70.3185 183.212 74.6814C181.434 76.2319 179.891 77.4939 179.79 77.4939C179.69 77.4939 179.589 76.0516 179.589 74.2487C179.589 70.7872 179.32 70.2824 177.576 70.2824C176.469 70.2824 174.322 68.9483 173.416 67.6862C172.041 65.7391 171.839 63.9002 171.94 55.679C172.041 46.9531 171.984 43.8521 176.211 42.7704L183.927 42.5901C188.188 42.4819 193.109 42.6261 194.685 42.5901C196.262 42.554 198.107 42.6982 198.812 42.9146Z" fill="white"/>
<path d="M120.496 20.9917C118.617 21.7489 116.94 22.9749 116.135 24.1648C115.732 24.7778 114.826 25.6432 114.122 26.148C112.411 27.3018 110.901 29.5374 110.633 31.3763C110.465 32.5302 110.13 32.9989 109.19 33.648C107.58 34.7658 106.943 35.523 106.137 37.4701C105.165 39.7417 105.232 42.3018 106.272 44.5374C106.943 45.9076 107.077 46.6288 106.943 47.7465C106.741 49.4773 107.144 51.2081 108.184 52.8307C109.023 54.1288 111.304 55.8595 112.176 55.8595C112.478 55.8595 112.914 56.3643 113.149 56.9413C113.652 58.2754 116.235 60.7994 117.812 61.5206C118.45 61.8091 119.959 62.0254 121.167 62.0254C122.945 62.0254 123.616 61.8451 124.891 60.9797L126.434 59.9341L128.178 61.0158C132.104 63.3956 136.968 61.5567 139.149 56.9052C139.618 55.9677 140.054 54.5254 140.189 53.7321C140.323 52.9028 140.49 52.2538 140.558 52.2538C140.658 52.2538 142.604 54.1288 144.885 56.4004C148.072 59.6095 149.246 60.547 149.951 60.547C151.36 60.547 163.873 46.8812 165.316 43.7802C166.658 40.8595 166.725 37.1816 165.45 34.2249C162.699 27.9509 155.855 26.5446 151.461 31.3403L149.85 33.1071L148.945 31.8812C147.569 30.0062 144.617 28.636 142.168 28.7081C141.061 28.7081 139.887 28.8163 139.551 28.8884C139.081 28.9605 138.78 28.5639 138.276 27.1576C137.471 24.8499 135.626 22.5422 133.814 21.5326C132.473 20.7754 130.53 20.0008 126.904 20.8836C126.202 21.2713 124.824 20.8836 123.717 20.7393C122.341 20.5951 121.335 20.6672 120.496 20.9917ZM124.421 24.1287C124.824 24.1287 124.891 26.8331 124.891 40.4989V56.8691L123.851 57.8066C122.207 59.3211 119.624 59.0326 117.275 57.0855C116.302 56.2922 116.269 56.148 116.604 55.1744C117.108 53.6961 116.537 53.1191 114.256 52.7946C112.713 52.5783 112.143 52.3259 111.237 51.3523C110.566 50.6312 110.13 49.8018 110.13 49.2249C110.13 48.3956 110.264 48.2874 111.405 48.2874C112.847 48.2874 113.484 47.7826 113.484 46.6288C113.484 45.6552 112.981 45.1865 111.472 44.8619C109.09 44.3211 107.983 42.0494 108.754 39.309C109.257 37.5062 110.398 36.4244 112.176 36.0999L113.652 35.8114V33.6119C113.652 31.9533 113.82 31.16 114.323 30.4028C115.397 28.8884 116.135 28.7802 118.718 29.7177C121.2 30.6191 121.972 30.4749 122.408 29.1047C122.677 28.1672 121.335 26.7249 119.825 26.4004C118.617 26.148 118.617 25.8235 119.791 24.922C120.932 24.0206 121.771 23.7682 123.012 23.9845C123.549 24.0566 124.186 24.1287 124.421 24.1287ZM132.271 24.5614C133.882 25.4629 135.089 27.0494 135.66 29.2129C136.029 30.4749 135.962 30.6552 134.854 32.2057C133.412 34.2249 132.808 36.785 133.009 39.7778C133.211 42.4461 134.318 44.934 136.431 47.4581C137.27 48.4677 137.974 49.3691 137.974 49.4773C137.974 49.5855 137.404 49.874 136.733 50.0903C135.056 50.6672 134.821 50.9557 135.089 52.0735C135.257 52.7225 135.592 53.047 136.297 53.2273C136.867 53.3355 137.303 53.4797 137.303 53.5879C137.303 53.66 137.001 54.3451 136.632 55.1023C134.955 58.672 131.466 59.7898 129.017 57.5182L128.078 56.6528L127.977 40.4268C127.91 25.1023 127.91 24.1648 128.48 24.0206C129.789 23.66 130.862 23.8042 132.271 24.5614ZM145.221 32.9629C146.026 33.4677 147.099 34.5855 147.603 35.4148C148.609 37.1095 149.314 37.8307 149.951 37.8307C150.186 37.8307 151.159 36.785 152.098 35.4869C154.849 31.809 157.231 30.9437 160.116 32.4941C162.196 33.6119 163.269 35.7754 163.269 38.7321C163.236 42.0134 162.431 43.3475 155.822 50.523L149.951 56.9052L148.072 55.1744C143.241 50.6312 138.109 44.7898 137.001 42.5542C135.995 40.4989 135.894 40.0663 136.062 38.1552C136.331 34.8379 137.672 33.0711 140.658 32.0254C141.933 31.5927 143.577 31.9172 145.221 32.9629Z" fill="white"/>
<path d="M117.525 35.4868C116.854 36.3883 117.391 37.7224 118.767 38.4435C119.807 38.9844 120.075 39.345 120.209 40.3546C120.343 41.4003 120.545 41.6527 121.249 41.7248C121.719 41.7969 122.289 41.5806 122.524 41.2921C123.128 40.4988 123.061 38.3354 122.39 37.2536C121.216 35.3065 118.431 34.2969 117.525 35.4868Z" fill="white"/>
<path d="M116.452 43.9961C116.083 44.2124 115.848 44.7894 115.848 45.4023C115.848 46.2317 116.083 46.5922 116.854 47.0249C117.794 47.5658 117.894 47.7461 117.794 49.2245C117.727 50.5947 117.827 50.9913 118.431 51.424C119.102 51.9288 119.236 51.8927 120.042 51.0273C120.679 50.3423 120.88 49.7653 120.88 48.5754C120.88 46.5922 120.31 45.4384 118.901 44.4288C117.626 43.5273 117.291 43.4552 116.452 43.9961Z" fill="white"/>
<path d="M194.853 50.0899C194.484 50.2702 192.304 52.4337 189.989 54.9217C187.674 57.4097 185.661 59.465 185.493 59.465C185.326 59.465 184.252 58.4914 183.078 57.3015C181.937 56.1116 180.83 55.138 180.595 55.138C179.69 55.138 178.918 55.9313 178.918 56.8688C178.918 57.6621 179.522 58.4553 181.736 60.6549C185.795 64.6212 185.56 64.6933 191.599 58.275C194.249 55.4625 196.564 52.8664 196.732 52.5058C197.436 51.1356 196.195 49.5491 194.853 50.0899Z" fill="white"/>
<path d="M40.8194 87.6735H34.9135V84.4093H40.8194C41.7853 84.4093 42.5675 84.2582 43.166 83.956C43.7749 83.6437 44.2212 83.2206 44.5046 82.6866C44.7881 82.1426 44.9299 81.523 44.9299 80.8279C44.9299 80.1529 44.7881 79.5232 44.5046 78.9389C44.2212 78.3546 43.7749 77.8811 43.166 77.5184C42.5675 77.1557 41.7853 76.9744 40.8194 76.9744H36.331V95.6978H32V73.6951H40.8194C42.6043 73.6951 44.1267 74.0024 45.3866 74.6169C46.657 75.2214 47.6229 76.0626 48.2844 77.1406C48.9562 78.2085 49.2923 79.4275 49.2923 80.7976C49.2923 82.2181 48.9562 83.4422 48.2844 84.4698C47.6229 85.4974 46.657 86.2882 45.3866 86.8423C44.1267 87.3964 42.6043 87.6735 40.8194 87.6735ZM61.7497 91.2248C61.7497 90.8822 61.6552 90.575 61.4662 90.3029C61.2772 90.0309 60.9203 89.7841 60.3952 89.5625C59.8808 89.3307 59.1249 89.1141 58.1274 88.9126C57.2455 88.7312 56.4319 88.5047 55.6863 88.2326C54.9409 87.9606 54.3004 87.6332 53.765 87.2503C53.2295 86.8574 52.8096 86.3991 52.5051 85.8752C52.2111 85.3412 52.0641 84.7267 52.0641 84.0316C52.0641 83.3566 52.2163 82.7219 52.5208 82.1275C52.8252 81.523 53.2663 80.9941 53.8437 80.5407C54.4212 80.0773 55.1246 79.7146 55.954 79.4527C56.7836 79.1807 57.718 79.0447 58.7574 79.0447C60.2064 79.0447 61.4504 79.2714 62.4899 79.7247C63.5398 80.1781 64.3431 80.8027 64.8994 81.5986C65.456 82.3844 65.7342 83.2709 65.7342 84.2582H61.5765C61.5765 83.825 61.4715 83.4321 61.2615 83.0795C61.0621 82.7269 60.7523 82.4448 60.3323 82.2333C59.9124 82.0116 59.3821 81.9008 58.7417 81.9008C58.1642 81.9008 57.6759 81.9915 57.2769 82.1728C56.8886 82.3541 56.5946 82.5909 56.3951 82.8831C56.1956 83.1752 56.0958 83.4976 56.0958 83.8502C56.0958 84.1121 56.1484 84.3489 56.2533 84.5605C56.3688 84.7619 56.5525 84.9483 56.8046 85.1196C57.0565 85.2909 57.3977 85.447 57.8281 85.5881C58.2692 85.7291 58.8099 85.8651 59.4503 85.9961C60.7208 86.2379 61.8284 86.5602 62.7734 86.9632C63.7288 87.3561 64.4742 87.88 65.0098 88.5348C65.5452 89.1897 65.8129 90.0258 65.8129 91.0434C65.8129 91.7687 65.6501 92.4336 65.3247 93.038C64.9993 93.6326 64.5267 94.1514 63.9073 94.5946C63.2879 95.038 62.5477 95.3855 61.6866 95.6373C60.8258 95.8791 59.8546 96 58.7732 96C57.2087 96 55.8858 95.7331 54.8043 95.199C53.723 94.6551 52.9041 93.9701 52.3476 93.1439C51.7912 92.3077 51.5128 91.4412 51.5128 90.5447H55.4973C55.5289 91.1794 55.7073 91.6882 56.0329 92.0709C56.3583 92.4537 56.7678 92.7309 57.2613 92.9022C57.7652 93.0633 58.2955 93.1439 58.8519 93.1439C59.4818 93.1439 60.012 93.0633 60.4425 92.9022C60.873 92.7309 61.1985 92.5042 61.4189 92.2221C61.6394 91.9299 61.7497 91.5975 61.7497 91.2248ZM73.3881 79.3469V95.6978H69.2147V79.3469H73.3881ZM68.9312 75.0703C68.9312 74.4759 69.1411 73.9823 69.5611 73.5894C69.9917 73.1965 70.569 73 71.2936 73C72.018 73 72.5902 73.1965 73.0101 73.5894C73.4406 73.9823 73.6559 74.4759 73.6559 75.0703C73.6559 75.6546 73.4406 76.1432 73.0101 76.5361C72.5902 76.929 72.018 77.1255 71.2936 77.1255C70.569 77.1255 69.9917 76.929 69.5611 76.5361C69.1411 76.1432 68.9312 75.6546 68.9312 75.0703ZM84.3494 92.8568C84.9373 92.8568 85.4623 92.7459 85.9242 92.5243C86.3862 92.3027 86.7536 91.9904 87.0266 91.5875C87.3102 91.1844 87.4624 90.716 87.4834 90.1819H91.4049C91.3838 91.2902 91.0584 92.2826 90.4284 93.1591C89.7985 94.0355 88.9585 94.7306 87.9086 95.2444C86.8692 95.7482 85.7038 96 84.4123 96C83.0999 96 81.9556 95.7885 80.9791 95.3654C80.0026 94.9422 79.189 94.3529 78.5379 93.5973C77.8975 92.8417 77.4145 91.9652 77.0891 90.9679C76.7741 89.9704 76.6166 88.9025 76.6166 87.7641V87.2806C76.6166 86.1421 76.7741 85.0743 77.0891 84.0769C77.4145 83.0795 77.8975 82.203 78.5379 81.4475C79.189 80.6919 80.0026 80.1025 80.9791 79.6794C81.9556 79.2562 83.0947 79.0447 84.3967 79.0447C85.772 79.0447 86.9794 79.3016 88.0189 79.8154C89.0688 80.3292 89.8877 81.0545 90.4757 81.9915C91.0742 82.9284 91.3838 84.0316 91.4049 85.3009H87.4834C87.4624 84.7166 87.326 84.1927 87.0739 83.7293C86.822 83.2659 86.4649 82.8931 86.0031 82.611C85.541 82.329 84.9793 82.1879 84.3178 82.1879C83.6144 82.1879 83.0264 82.329 82.554 82.611C82.092 82.8931 81.7298 83.281 81.4672 83.7746C81.2153 84.2582 81.0368 84.8022 80.9318 85.4067C80.8373 86.0011 80.7901 86.6257 80.7901 87.2806V87.7641C80.7901 88.429 80.8373 89.0638 80.9318 89.6682C81.0368 90.2726 81.2153 90.8167 81.4672 91.3003C81.7298 91.7738 82.092 92.1515 82.554 92.4336C83.0264 92.7157 83.6248 92.8568 84.3494 92.8568ZM93.4364 87.6886V87.3712C93.4364 86.1724 93.615 85.0692 93.972 84.0618C94.3289 83.0443 94.8487 82.1627 95.5312 81.4172C96.2135 80.6717 97.0482 80.0924 98.0352 79.6794C99.0221 79.2562 100.146 79.0447 101.405 79.0447C102.686 79.0447 103.82 79.2562 104.807 79.6794C105.805 80.0924 106.645 80.6717 107.327 81.4172C108.009 82.1627 108.529 83.0443 108.886 84.0618C109.243 85.0692 109.422 86.1724 109.422 87.3712V87.6886C109.422 88.8773 109.243 89.9805 108.886 90.9981C108.529 92.0054 108.009 92.887 107.327 93.6426C106.645 94.388 105.81 94.9674 104.823 95.3804C103.836 95.7934 102.707 96 101.437 96C100.177 96 99.0483 95.7934 98.051 95.3804C97.0535 94.9674 96.2135 94.388 95.5312 93.6426C94.8487 92.887 94.3289 92.0054 93.972 90.9981C93.615 89.9805 93.4364 88.8773 93.4364 87.6886ZM97.5941 87.3712V87.6886C97.5941 88.4039 97.6676 89.0738 97.8147 89.6984C97.9616 90.3231 98.1874 90.8721 98.4919 91.3456C98.7964 91.8191 99.19 92.1919 99.673 92.4639C100.167 92.7258 100.754 92.8568 101.437 92.8568C102.109 92.8568 102.686 92.7258 103.169 92.4639C103.652 92.1919 104.046 91.8191 104.35 91.3456C104.665 90.8721 104.896 90.3231 105.043 89.6984C105.19 89.0738 105.264 88.4039 105.264 87.6886V87.3712C105.264 86.666 105.19 86.0061 105.043 85.3916C104.896 84.767 104.665 84.2179 104.35 83.7444C104.046 83.2608 103.647 82.8831 103.154 82.611C102.671 82.329 102.088 82.1879 101.405 82.1879C100.734 82.1879 100.156 82.329 99.673 82.611C99.19 82.8831 98.7964 83.2608 98.4919 83.7444C98.1874 84.2179 97.9616 84.767 97.8147 85.3916C97.6676 86.0061 97.5941 86.666 97.5941 87.3712ZM122.604 73.6951V95.6978H118.288V73.6951H122.604ZM129.722 73.6951V76.9744H111.248V73.6951H129.722ZM138.463 96C137.171 96 136.011 95.7985 134.982 95.3956C133.953 94.9926 133.076 94.4334 132.352 93.7181C131.638 92.9929 131.087 92.1515 130.698 91.1944C130.32 90.2273 130.131 89.1897 130.131 88.0814V87.477C130.131 86.2177 130.32 85.0743 130.698 84.0467C131.076 83.009 131.612 82.1174 132.305 81.3719C132.998 80.6264 133.827 80.0521 134.793 79.6492C135.759 79.2462 136.825 79.0447 137.99 79.0447C139.198 79.0447 140.263 79.2411 141.187 79.634C142.111 80.0169 142.883 80.5609 143.502 81.2661C144.122 81.9713 144.589 82.8176 144.904 83.8049C145.219 84.7821 145.376 85.8651 145.376 87.0539V88.7312H132.021V85.981H141.282V85.6787C141.261 85.044 141.135 84.4648 140.904 83.9409C140.673 83.4069 140.316 82.9838 139.833 82.6715C139.35 82.3491 138.725 82.1879 137.959 82.1879C137.339 82.1879 136.798 82.3189 136.337 82.5808C135.885 82.8327 135.507 83.1954 135.203 83.6689C134.909 84.1323 134.688 84.6864 134.541 85.3312C134.394 85.9759 134.321 86.6912 134.321 87.477V88.0814C134.321 88.7665 134.415 89.4013 134.604 89.9856C134.804 90.5699 135.092 91.0787 135.47 91.5118C135.859 91.935 136.321 92.2674 136.856 92.5093C137.402 92.7409 138.022 92.8568 138.715 92.8568C139.586 92.8568 140.373 92.6956 141.077 92.3733C141.791 92.0407 142.41 91.5522 142.935 90.9074L145.03 92.9929C144.673 93.4966 144.19 93.9801 143.581 94.4436C142.983 94.9069 142.258 95.2848 141.408 95.5769C140.557 95.859 139.576 96 138.463 96ZM157.535 91.2248C157.535 90.8822 157.44 90.575 157.251 90.3029C157.062 90.0309 156.705 89.7841 156.18 89.5625C155.666 89.3307 154.91 89.1141 153.912 88.9126C153.03 88.7312 152.217 88.5047 151.471 88.2326C150.726 87.9606 150.085 87.6332 149.55 87.2503C149.014 86.8574 148.594 86.3991 148.29 85.8752C147.996 85.3412 147.849 84.7267 147.849 84.0316C147.849 83.3566 148.001 82.7219 148.306 82.1275C148.61 81.523 149.051 80.9941 149.629 80.5407C150.206 80.0773 150.909 79.7146 151.739 79.4527C152.568 79.1807 153.503 79.0447 154.542 79.0447C155.991 79.0447 157.235 79.2714 158.275 79.7247C159.325 80.1781 160.128 80.8027 160.684 81.5986C161.241 82.3844 161.519 83.2709 161.519 84.2582H157.361C157.361 83.825 157.256 83.4321 157.046 83.0795C156.847 82.7269 156.537 82.4448 156.117 82.2333C155.697 82.0116 155.167 81.9008 154.527 81.9008C153.949 81.9008 153.461 81.9915 153.062 82.1728C152.673 82.3541 152.379 82.5909 152.18 82.8831C151.98 83.1752 151.881 83.4976 151.881 83.8502C151.881 84.1121 151.933 84.3489 152.038 84.5605C152.154 84.7619 152.337 84.9483 152.589 85.1196C152.841 85.2909 153.183 85.447 153.613 85.5881C154.054 85.7291 154.595 85.8651 155.235 85.9961C156.506 86.2379 157.613 86.5602 158.558 86.9632C159.514 87.3561 160.259 87.88 160.795 88.5348C161.33 89.1897 161.598 90.0258 161.598 91.0434C161.598 91.7687 161.435 92.4336 161.109 93.038C160.784 93.6326 160.312 94.1514 159.692 94.5946C159.073 95.038 158.332 95.3855 157.472 95.6373C156.611 95.8791 155.639 96 154.558 96C152.994 96 151.671 95.7331 150.589 95.199C149.508 94.6551 148.689 93.9701 148.132 93.1439C147.576 92.3077 147.298 91.4412 147.298 90.5447H151.282C151.314 91.1794 151.492 91.6882 151.818 92.0709C152.143 92.4537 152.553 92.7309 153.046 92.9022C153.55 93.0633 154.08 93.1439 154.637 93.1439C155.267 93.1439 155.797 93.0633 156.227 92.9022C156.658 92.7309 156.983 92.5042 157.204 92.2221C157.424 91.9299 157.535 91.5975 157.535 91.2248ZM172.827 79.3469V82.2181H163.062V79.3469H172.827ZM165.677 75.3272H169.85V90.9829C169.85 91.4665 169.918 91.8392 170.055 92.1012C170.191 92.3632 170.396 92.5395 170.669 92.6301C170.942 92.7208 171.268 92.7662 171.646 92.7662C171.919 92.7662 172.17 92.751 172.402 92.7208C172.632 92.6905 172.827 92.6603 172.984 92.6301L173 95.6223C172.653 95.7331 172.26 95.8237 171.819 95.8943C171.388 95.9647 170.9 96 170.354 96C169.42 96 168.601 95.849 167.897 95.5466C167.194 95.2343 166.648 94.7357 166.259 94.0505C165.871 93.3554 165.677 92.4387 165.677 91.3003V75.3272Z" fill="white"/>
</svg>
