<svg width="148" height="91" viewBox="0 0 148 91" fill="none" xmlns="http://www.w3.org/2000/svg">
<path d="M51.6279 5.48188C42.1819 6.17626 33.3095 11.9871 28.7204 20.4293C27.9173 21.9642 27.0377 23.8646 26.8082 24.7052L26.3875 26.2036L23.4046 26.4228C13.7674 27.1172 5.69815 33.7686 3.2506 42.9417C0.152928 54.5634 8.48988 67.1718 20.8806 69.6204C23.1751 70.059 29.9441 70.1686 62.3741 70.2417L101.152 70.3148L103.256 72.3614C104.556 73.604 106.009 74.5907 107.08 74.9562L108.801 75.5409L108.916 79.3783C108.992 82.6309 109.145 83.3253 109.757 83.8735C110.943 84.8967 112.281 84.2755 117.979 80.0361L123.333 76.0526L128.687 76.016C132.167 75.9795 134.538 75.7967 135.495 75.5044C138.898 74.3349 141.766 71.5208 142.608 68.5241C142.799 67.72 143.067 62.8594 143.105 57.7429C143.22 48.6064 143.22 48.3871 142.302 46.5232C141.307 44.3305 139.128 42.2839 136.757 41.2606C135.342 40.6393 134.118 40.5662 123.333 40.5662H111.478L110.828 37.7887C108.036 26.0574 97.0986 18.4192 85.0521 19.7349C83.3695 19.9176 81.6103 20.21 81.0749 20.3927C80.1953 20.7216 80.0423 20.5755 78.7803 18.4923C76.9829 15.459 71.9348 10.6714 68.7989 8.99031C65.6248 7.30919 61.2651 5.88389 58.5116 5.62807C57.3643 5.51842 56.064 5.40878 55.6434 5.33569C55.2227 5.29915 53.4253 5.3357 51.6279 5.48188ZM61.9534 9.97707C68.6077 12.0602 73.541 16.0437 76.524 21.818C77.5565 23.7915 78.3214 24.8514 78.7421 24.8514C79.0863 24.8514 80.2718 24.5224 81.3808 24.1204C86.3141 22.3297 91.2857 22.5124 95.8749 24.6686C102.185 27.6654 106.353 33.1473 107.615 40.1277C107.807 41.224 107.73 41.3702 106.506 41.8819C103.345 42.6913 102.223 44.769 101.229 46.5598C100.426 47.9486 100.388 48.6795 100.196 57.3775L100.005 66.6967L90.6356 66.916C85.4728 67.0257 67.9193 67.0257 51.6279 66.8795L21.9896 66.6602L19.3509 65.71C7.76326 61.5072 2.94466 49.8489 8.45163 39.3602C10.6697 35.1939 15.6795 31.3931 20.3069 30.3698C21.2248 30.1506 23.4811 29.9678 25.2785 29.9678C27.6496 29.9678 28.7204 29.8216 29.0263 29.4562C29.2558 29.1638 29.8294 27.7385 30.2501 26.2767C32.0093 20.1734 36.063 15.1666 41.8759 11.914C48.4155 8.25938 54.5343 7.67465 61.9534 9.97707ZM134.347 44.2574C136.145 44.7325 138.401 46.5598 139.051 48.1313C139.472 49.0084 139.587 51.5301 139.587 57.9257C139.587 67.1353 139.395 68.1951 137.56 70.1321C135.8 71.9594 134.156 72.3614 127.922 72.3614C121.383 72.3614 122.339 72.0325 116.564 76.4546C114.537 78.0261 112.778 79.3052 112.664 79.3052C112.549 79.3052 112.434 77.8433 112.434 76.016C112.434 72.5076 112.128 71.9959 110.139 71.9959C108.877 71.9959 106.43 70.6437 105.397 69.3646C103.829 67.3911 103.6 65.5273 103.715 57.1947C103.829 48.3506 103.765 45.2076 108.583 44.1112L117.379 43.9285C122.236 43.8188 127.846 43.965 129.643 43.9285C131.441 43.8919 133.544 44.0381 134.347 44.2574Z" fill="black"/>
<path d="M45.0709 22.0373C42.9293 22.8048 41.0171 24.0474 40.0993 25.2534C39.6404 25.8747 38.6078 26.7518 37.8047 27.2634C35.8543 28.4329 34.1334 30.6988 33.8275 32.5626C33.6362 33.7321 33.2538 34.2072 32.183 34.8651C30.3474 35.998 29.6207 36.7655 28.7029 38.7389C27.5939 41.0414 27.6704 43.6361 28.8559 45.902C29.6207 47.2908 29.7737 48.0217 29.6207 49.1546C29.3913 50.9088 29.8502 52.663 31.0357 54.3076C31.9918 55.6233 34.5923 57.3775 35.5866 57.3775C35.9308 57.3775 36.428 57.8892 36.6957 58.4739C37.2693 59.8261 40.214 62.3843 42.0114 63.1153C42.7381 63.4076 44.459 63.6269 45.8357 63.6269C47.8626 63.6269 48.6275 63.4442 50.0807 62.5671L51.8399 61.5072L53.8285 62.6036C58.3029 65.0157 63.8481 63.1518 66.3339 58.4373C66.8693 57.4871 67.3665 56.0253 67.5194 55.2213C67.6724 54.3807 67.8636 53.7229 67.9401 53.7229C68.0548 53.7229 70.2729 55.6233 72.8735 57.9257C76.5065 61.1783 77.845 62.1285 78.6481 62.1285C80.2543 62.1285 94.5189 48.2775 96.1634 45.1345C97.6931 42.1743 97.7696 38.4466 96.3163 35.4498C93.1804 29.0908 85.3789 27.6655 80.3691 32.5261L78.5334 34.3169L77.5008 33.0743C75.9329 31.1739 72.5675 29.7851 69.7758 29.8582C68.5138 29.8582 67.1753 29.9679 66.7928 30.041C66.2574 30.114 65.9132 29.712 65.3396 28.2867C64.4218 25.9478 62.3184 23.6088 60.2533 22.5855C58.7236 21.8181 56.509 21.033 52.3753 21.9277C51.5756 22.3207 50.0042 21.9277 48.7422 21.7815C47.1742 21.6353 46.0269 21.7084 45.0709 22.0373ZM49.5453 25.2169C50.0042 25.2169 50.0807 27.9578 50.0807 41.8088V58.4008L48.8952 59.351C47.0213 60.8859 44.0766 60.5936 41.3996 58.6201C40.2905 57.8161 40.2523 57.6699 40.6347 56.6831C41.2083 55.1847 40.5582 54.6 37.9577 54.2711C36.1985 54.0518 35.5484 53.796 34.5158 52.8092C33.751 52.0783 33.2538 51.2377 33.2538 50.653C33.2538 49.8124 33.4068 49.7028 34.707 49.7028C36.3515 49.7028 37.0781 49.1912 37.0781 48.0217C37.0781 47.0349 36.5045 46.5598 34.7835 46.2309C32.0683 45.6827 30.8063 43.3803 31.6859 40.6028C32.2595 38.7755 33.5598 37.6791 35.5866 37.3502L37.2693 37.0578V34.8285C37.2693 33.1474 37.4605 32.3434 38.0342 31.5759C39.2579 30.041 40.0993 29.9313 43.044 30.8815C45.874 31.7952 46.7536 31.649 47.2507 30.2602C47.5567 29.31 46.0269 27.8482 44.306 27.5193C42.9293 27.2634 42.9293 26.9345 44.2678 26.0209C45.568 25.1072 46.5241 24.8514 47.9391 25.0707C48.551 25.1438 49.2776 25.2169 49.5453 25.2169ZM58.4941 25.6554C60.3298 26.5691 61.7065 28.1771 62.3567 30.3699C62.7773 31.649 62.7008 31.8317 61.4388 33.4032C59.7944 35.4498 59.106 38.0446 59.3355 41.0779C59.5649 43.7823 60.8269 46.304 63.2362 48.8622C64.1923 49.8855 64.9954 50.7992 64.9954 50.9088C64.9954 51.0185 64.3453 51.3108 63.5804 51.5301C61.6683 52.1149 61.4006 52.4072 61.7065 53.5402C61.8977 54.198 62.2802 54.5269 63.0833 54.7096C63.7334 54.8193 64.2306 54.9655 64.2306 55.0751C64.2306 55.1482 63.8864 55.8426 63.4657 56.61C61.5536 60.2281 57.5763 61.361 54.7846 59.0586L53.7138 58.1815L53.599 41.7357C53.5225 26.2036 53.5225 25.2534 54.1727 25.1072C55.6641 24.7418 56.8879 24.8879 58.4941 25.6554ZM73.2559 34.1707C74.1737 34.6823 75.3975 35.8153 75.9711 36.6558C77.1184 38.3735 77.9215 39.1044 78.6481 39.1044C78.9158 39.1044 80.0249 38.0446 81.0957 36.7289C84.2316 33.0012 86.9468 32.1241 90.2357 33.6956C92.6068 34.8285 93.8306 37.0213 93.8306 40.0181C93.7923 43.3438 92.8745 44.696 85.3406 51.9687L78.6481 58.4373L76.5065 56.6831C70.9995 52.0783 65.1484 46.1578 63.8864 43.892C62.7391 41.8088 62.6244 41.3703 62.8156 39.4333C63.1215 36.0711 64.6512 34.2803 68.0548 33.2205C69.5081 32.7819 71.382 33.1108 73.2559 34.1707Z" fill="black"/>
<path d="M41.6848 36.7289C40.9199 37.6425 41.5318 38.9948 43.0998 39.7257C44.2853 40.2739 44.5912 40.6393 44.7442 41.6626C44.8972 42.7225 45.1266 42.9783 45.9297 43.0514C46.4651 43.1245 47.1153 42.9052 47.383 42.6128C48.0713 41.8088 47.9949 39.616 47.23 38.5197C45.8915 36.5462 42.7173 35.5229 41.6848 36.7289Z" fill="black"/>
<path d="M40.4608 45.3538C40.0402 45.5731 39.7725 46.1578 39.7725 46.7791C39.7725 47.6196 40.0402 47.9851 40.9197 48.4237C41.9905 48.9719 42.1053 49.1546 41.9905 50.653C41.9141 52.0417 42.0288 52.4437 42.7172 52.8823C43.482 53.3939 43.635 53.3574 44.5528 52.4803C45.2794 51.7859 45.5089 51.2012 45.5089 49.9952C45.5089 47.9851 44.8588 46.8156 43.2526 45.7923C41.7993 44.8787 41.4169 44.8056 40.4608 45.3538Z" fill="black"/>
<path d="M129.835 51.5301C129.414 51.7129 126.928 53.9056 124.289 56.4273C121.651 58.949 119.356 61.0321 119.165 61.0321C118.974 61.0321 117.75 60.0454 116.411 58.8394C115.111 57.6333 113.849 56.6466 113.581 56.6466C112.549 56.6466 111.669 57.4506 111.669 58.4008C111.669 59.2048 112.358 60.0088 114.882 62.2382C119.509 66.2582 119.241 66.3313 126.125 59.8261C129.146 56.9755 131.785 54.3442 131.976 53.9787C132.779 52.59 131.364 50.9819 129.835 51.5301Z" fill="black"/>
</svg>
