<svg width="101" height="58" viewBox="0 0 101 58" fill="none" xmlns="http://www.w3.org/2000/svg">
<g opacity="0.05">
<path d="M24.9493 0.699631C21.8346 1.75621 19.0535 3.46687 17.7186 5.12722C17.0511 5.98255 15.5493 7.19007 14.3813 7.89446C11.5446 9.50449 9.04164 12.6239 8.59667 15.1899C8.31857 16.7999 7.76235 17.454 6.20496 18.3597C3.53513 19.9194 2.47833 20.976 1.14341 23.6929C-0.469606 26.8627 -0.358364 30.4349 1.3659 33.5544C2.47833 35.4663 2.70081 36.4725 2.47833 38.0323C2.1446 40.4473 2.81205 42.8624 4.53632 45.1265C5.92685 46.9377 9.7091 49.3528 11.1553 49.3528C11.6558 49.3528 12.3789 50.0572 12.7683 50.8622C13.6026 52.7238 17.8854 56.2457 20.4996 57.252C21.5564 57.6545 24.0594 57.9564 26.0618 57.9564C29.0097 57.9564 30.1221 57.7048 32.2357 56.4973L34.7943 55.0382L37.6866 56.5476C44.1943 59.8683 52.2594 57.3023 55.8748 50.8119C56.6535 49.5037 57.3766 47.4912 57.5991 46.3843C57.8216 45.2271 58.0997 44.3214 58.2109 44.3214C58.3778 44.3214 61.6038 46.9377 65.3861 50.1075C70.6701 54.5854 72.6169 55.8936 73.7849 55.8936C76.121 55.8936 96.8678 36.8247 99.2595 32.4978C101.484 28.4224 101.596 23.2904 99.482 19.1647C94.921 10.4101 83.5743 8.44791 76.2879 15.1396L73.618 17.605L72.1163 15.8943C69.8358 13.278 64.9411 11.3661 60.8807 11.4667C59.0452 11.4667 57.0985 11.6177 56.5423 11.7183C55.7636 11.8189 55.263 11.2655 54.4287 9.30324C53.0938 6.08318 50.0346 2.86311 47.031 1.45433C44.8062 0.397747 41.5852 -0.683102 35.573 0.548687C34.41 1.08974 32.1245 0.548687 30.289 0.347435C28.0085 0.146179 26.3399 0.246807 24.9493 0.699631ZM31.457 5.0769C32.1245 5.0769 32.2357 8.85041 32.2357 27.9192V50.7616L30.5115 52.0697C27.786 54.1829 23.5032 53.7804 19.6097 51.0635C17.9967 49.9566 17.9411 49.7553 18.4973 48.3968C19.3316 46.334 18.386 45.529 14.6038 45.0761C12.0452 44.7743 11.0996 44.4221 9.59786 43.0636C8.48543 42.0573 7.76235 40.9001 7.76235 40.0951C7.76235 38.9379 7.98484 38.787 9.87597 38.787C12.2677 38.787 13.3245 38.0826 13.3245 36.4725C13.3245 35.1141 12.4902 34.46 9.98721 34.0072C6.03809 33.2525 4.20259 30.0827 5.48188 26.2589C6.3162 23.7432 8.20732 22.2338 11.1553 21.781L13.6026 21.3785V18.3094C13.6026 15.9949 13.8807 14.888 14.715 13.8315C16.4949 11.7183 17.7186 11.5673 22.0014 12.8755C26.1174 14.1333 27.3967 13.9321 28.1198 12.0202C28.5647 10.712 26.3399 8.69947 23.8369 8.24665C21.8346 7.89446 21.8346 7.44164 23.7813 6.1838C25.6724 4.92596 27.063 4.57377 29.121 4.87565C30.0109 4.97628 31.0677 5.0769 31.457 5.0769ZM44.4724 5.68067C47.1423 6.93851 49.1446 9.1523 50.0902 12.1711C50.702 13.9321 50.5908 14.1837 48.7553 16.3471C46.3636 19.1647 45.3624 22.7369 45.6961 26.913C46.0298 30.6362 47.8653 34.1078 51.3695 37.6297C52.76 39.0385 53.9281 40.2964 53.9281 40.4473C53.9281 40.5982 52.9825 41.0008 51.8701 41.3026C49.089 42.1077 48.6997 42.5102 49.1446 44.0699C49.4227 44.9755 49.979 45.4283 51.147 45.6799C52.0926 45.8309 52.8156 46.0321 52.8156 46.183C52.8156 46.2837 52.3151 47.2396 51.7032 48.2962C48.9222 53.2773 43.1375 54.837 39.0772 51.6672L37.5198 50.4597L37.3529 27.8186C37.2417 6.43537 37.2417 5.12722 38.1872 4.92596C40.3565 4.42283 42.1363 4.62408 44.4724 5.68067ZM65.9423 17.4037C67.2772 18.1081 69.0571 19.6678 69.8914 20.825C71.56 23.1898 72.7281 24.196 73.7849 24.196C74.1742 24.196 75.7873 22.7369 77.3447 20.9257C81.9056 15.7937 85.8547 14.5862 90.6382 16.7496C94.0867 18.3094 95.8666 21.3282 95.8666 25.4539C95.811 30.0324 94.476 31.894 83.5186 41.9064L73.7849 50.8119L70.6701 48.3968C62.6606 42.0573 54.1506 33.9065 52.3151 30.7871C50.6464 27.9192 50.4795 27.3155 50.7577 24.6489C51.2026 20.02 53.4275 17.5547 58.3778 16.0956C60.4914 15.4918 63.2168 15.9446 65.9423 17.4037Z" fill="black"/>
<path d="M20.0244 20.9256C18.912 22.1834 19.8019 24.045 22.0824 25.0513C23.8067 25.806 24.2516 26.3091 24.4741 27.7179C24.6966 29.177 25.0303 29.5292 26.1984 29.6298C26.9771 29.7304 27.9226 29.4285 28.312 29.026C29.3132 27.9191 29.2019 24.9003 28.0895 23.3909C26.1428 20.674 21.5262 19.2652 20.0244 20.9256Z" fill="black"/>
<path d="M18.2453 32.7995C17.6335 33.1014 17.2441 33.9064 17.2441 34.7618C17.2441 35.919 17.6335 36.4221 18.9128 37.0259C20.4702 37.7806 20.637 38.0321 20.4702 40.095C20.3589 42.0069 20.5258 42.5604 21.527 43.1641C22.6394 43.8685 22.8619 43.8182 24.1968 42.6107C25.2536 41.6547 25.5873 40.8497 25.5873 39.1893C25.5873 36.4221 24.6418 34.8121 22.3057 33.4033C20.1921 32.1455 19.6359 32.0448 18.2453 32.7995Z" fill="black"/>
</g>
</svg>
