<svg width="26" height="31" viewBox="0 0 26 31" fill="none" xmlns="http://www.w3.org/2000/svg">
<path d="M4.89144 11.1904C4.89144 13.6842 6.49525 15.5654 8.62123 15.5654C10.7472 15.5654 12.351 13.6842 12.351 11.1904C12.351 8.69668 10.7472 6.81543 8.62123 6.81543C6.49525 6.81543 4.89144 8.69668 4.89144 11.1904ZM20.3435 10.5004H18.2121V14.2504H15.0152V16.7504H18.2121V20.5004H20.3435V16.7504H23.5404V14.2504H20.3435V10.5004ZM4.35861 24.2504H15.0152V23.0004C15.0152 19.5542 12.6249 16.7504 9.68689 16.7504H7.55558C4.61756 16.7504 2.22729 19.5542 2.22729 23.0004V24.2504H4.35861Z" fill="white"/>
</svg>
