<svg width="154" height="93" viewBox="0 0 154 93" fill="none" xmlns="http://www.w3.org/2000/svg">
<g opacity="0.05">
<path d="M44.5826 4.13307C35.9928 4.74931 27.9246 9.90623 23.7514 17.3984C23.0211 18.7606 22.2212 20.4471 22.0126 21.1931L21.63 22.5229L18.9175 22.7175C10.1538 23.3337 2.81591 29.2366 0.590211 37.3774C-2.22669 47.6913 5.3546 58.8809 16.6222 61.0539C18.7088 61.4431 24.8643 61.5404 54.3548 61.6053L89.6182 61.6702L91.531 63.4864C92.7134 64.5892 94.0349 65.4649 95.0086 65.7892L96.5736 66.3082L96.6779 69.7137C96.7474 72.6003 96.8866 73.2165 97.443 73.703C98.521 74.6112 99.7382 74.0598 104.92 70.2975L109.789 66.7622L114.657 66.7298C117.822 66.6974 119.978 66.5352 120.848 66.2757C123.943 65.2379 126.551 62.7405 127.316 60.0809C127.49 59.3674 127.733 55.0537 127.768 50.513C127.872 42.4046 127.872 42.21 127.038 40.5559C126.134 38.6099 124.151 36.7936 121.995 35.8855C120.709 35.3341 119.596 35.2693 109.789 35.2693H99.0079L98.4167 32.8043C95.878 22.3932 85.9319 15.6145 74.9773 16.7821C73.4471 16.9443 71.8474 17.2038 71.3605 17.366C70.5607 17.6579 70.4216 17.5281 69.274 15.6794C67.6395 12.9874 63.049 8.73862 60.1973 7.24668C57.3108 5.75475 53.3463 4.48984 50.8424 4.2628C49.7991 4.1655 48.6167 4.0682 48.2341 4.00333C47.8516 3.97089 46.2171 4.00333 44.5826 4.13307ZM53.9723 8.1224C60.0234 9.97111 64.5096 13.5064 67.2221 18.6309C68.1611 20.3823 68.8566 21.3228 69.2392 21.3228C69.5522 21.3228 70.6302 21.0309 71.6388 20.6742C76.1249 19.0849 80.6459 19.2471 84.8191 21.1607C90.5572 23.8202 94.3479 28.6853 95.4955 34.8801C95.6694 35.8531 95.5998 35.9828 94.487 36.4369C91.612 37.1552 90.592 38.9991 89.6878 40.5884C88.9575 41.8208 88.9227 42.4695 88.7488 50.1887L88.575 58.4592L80.0547 58.6538C75.3599 58.7512 59.3974 58.7512 44.5826 58.6214L17.6307 58.4268L15.2312 57.5835C4.69385 53.8537 0.311999 43.5074 5.31983 34.199C7.33687 30.5015 11.8926 27.1284 16.1006 26.2203C16.9352 26.0257 18.987 25.8635 20.6215 25.8635C22.7777 25.8635 23.7514 25.7338 24.0296 25.4095C24.2383 25.15 24.7599 23.8851 25.1425 22.5877C26.7422 17.1713 30.4285 12.728 35.7146 9.84137C41.6614 6.59801 47.2256 6.07909 53.9723 8.1224ZM119.804 38.5451C121.439 38.9667 123.491 40.5884 124.082 41.983C124.464 42.7614 124.569 44.9993 124.569 50.6752C124.569 58.8485 124.395 59.789 122.726 61.508C121.126 63.1297 119.63 63.4864 113.962 63.4864C108.015 63.4864 108.884 63.1945 103.633 67.119C101.79 68.5136 100.19 69.6488 100.086 69.6488C99.9817 69.6488 99.8773 68.3515 99.8773 66.7298C99.8773 63.6162 99.5991 63.1621 97.7907 63.1621C96.6431 63.1621 94.4174 61.9621 93.4784 60.8269C92.0526 59.0755 91.8439 57.4214 91.9483 50.0265C92.0526 42.1776 91.9943 39.3883 96.3758 38.4153L104.374 38.2532C108.791 38.1558 113.892 38.2856 115.527 38.2532C117.161 38.2207 119.074 38.3505 119.804 38.5451Z" fill="black"/>
<path d="M38.62 18.8257C36.6725 19.5068 34.9337 20.6096 34.0991 21.6799C33.6817 22.2312 32.7428 23.0096 32.0125 23.4637C30.2388 24.5016 28.6739 26.5125 28.3957 28.1666C28.2218 29.2045 27.874 29.6261 26.9003 30.2099C25.231 31.2153 24.5703 31.8964 23.7356 33.6478C22.7271 35.6912 22.7967 37.9939 23.8747 40.0048C24.5703 41.2373 24.7094 41.886 24.5703 42.8914C24.3616 44.4482 24.7789 46.005 25.857 47.4645C26.7264 48.6321 29.0912 50.1889 29.9954 50.1889C30.3084 50.1889 30.7605 50.643 31.0039 51.162C31.5256 52.362 34.2034 54.6323 35.8379 55.281C36.4986 55.5405 38.0636 55.7351 39.3155 55.7351C41.1587 55.7351 41.8542 55.5729 43.1757 54.7945L44.7755 53.8539L46.5838 54.8269C50.6527 56.9676 55.6953 55.3134 57.9558 51.1295C58.4427 50.2862 58.8948 48.9889 59.0339 48.2754C59.173 47.5294 59.3469 46.9456 59.4164 46.9456C59.5207 46.9456 61.5378 48.6321 63.9026 50.6755C67.2064 53.562 68.4235 54.4053 69.1539 54.4053C70.6145 54.4053 83.5861 42.113 85.0815 39.3237C86.4726 36.6966 86.5421 33.3884 85.2206 30.7288C82.369 25.0854 75.2745 23.8205 70.7188 28.1341L69.0495 29.7234L68.1106 28.6206C66.6847 26.9341 63.6244 25.7016 61.0857 25.7665C59.9381 25.7665 58.7209 25.8638 58.3731 25.9287C57.8862 25.9935 57.5732 25.6368 57.0516 24.3719C56.217 22.2961 54.3042 20.2204 52.4263 19.3122C51.0352 18.6311 49.0214 17.9344 45.2623 18.7284C44.5352 19.0772 43.1062 18.7284 41.9586 18.5987C40.5327 18.469 39.4894 18.5338 38.62 18.8257ZM42.6889 21.6474C43.1062 21.6474 43.1757 24.08 43.1757 36.3723V51.0971L42.0977 51.9404C40.3936 53.3026 37.7158 53.0431 35.2815 51.2917C34.2729 50.5782 34.2382 50.4484 34.5859 49.5727C35.1076 48.2429 34.5164 47.724 32.1516 47.4321C30.5518 47.2375 29.9606 47.0105 29.0217 46.1348C28.3261 45.4861 27.874 44.7401 27.874 44.2212C27.874 43.4752 28.0131 43.3779 29.1956 43.3779C30.6909 43.3779 31.3517 42.9238 31.3517 41.886C31.3517 41.0103 30.8301 40.5886 29.2651 40.2967C26.796 39.8102 25.6483 37.7669 26.4482 35.302C26.9698 33.6803 28.1523 32.7073 29.9954 32.4154L31.5256 32.1559V30.1775C31.5256 28.6855 31.6995 27.972 32.2211 27.2909C33.334 25.9287 34.099 25.8314 36.7768 26.6746C39.3503 27.4855 40.1502 27.3557 40.6023 26.1233C40.8805 25.28 39.4894 23.9827 37.9245 23.6908C36.6725 23.4637 36.6725 23.1718 37.8897 22.361C39.0721 21.5501 39.9415 21.3231 41.2282 21.5177C41.7847 21.5826 42.4454 21.6474 42.6889 21.6474ZM50.8266 22.0366C52.4959 22.8475 53.7478 24.2746 54.339 26.2206C54.7216 27.3557 54.652 27.5179 53.5044 28.9126C52.009 30.7288 51.383 33.0316 51.5917 35.7236C51.8003 38.1237 52.948 40.3616 55.1389 42.6319C56.0083 43.5401 56.7386 44.3509 56.7386 44.4482C56.7386 44.5455 56.1474 44.805 55.4519 44.9996C53.713 45.5185 53.4696 45.778 53.7478 46.7834C53.9217 47.3672 54.2695 47.6591 54.9998 47.8213C55.591 47.9186 56.0431 48.0483 56.0431 48.1456C56.0431 48.2105 55.7301 48.8267 55.3475 49.5078C53.6087 52.7188 49.9919 53.7242 47.4533 51.6809L46.4795 50.9025L46.3752 36.3074C46.3056 22.5231 46.3056 21.6799 46.8968 21.5501C48.2531 21.2258 49.366 21.3555 50.8266 22.0366ZM64.2504 29.5937C65.085 30.0477 66.1978 31.0532 66.7195 31.7991C67.7628 33.3235 68.4931 33.9722 69.1539 33.9722C69.3973 33.9722 70.4058 33.0316 71.3796 31.864C74.2312 28.5558 76.7004 27.7774 79.6912 29.172C81.8473 30.1775 82.9602 32.1235 82.9602 34.783C82.9254 37.7345 82.0907 38.9345 75.2397 45.3888L69.1539 51.1295L67.2064 49.5727C62.1985 45.4861 56.8777 40.2319 55.7301 38.221C54.6868 36.3723 54.5825 35.9831 54.7563 34.2641C55.0346 31.2802 56.4256 29.691 59.5207 28.7504C60.8422 28.3612 62.5463 28.6531 64.2504 29.5937Z" fill="black"/>
<path d="M35.5406 31.8637C34.8451 32.6746 35.4015 33.8746 36.8274 34.5233C37.9054 35.0098 38.1837 35.3341 38.3228 36.2423C38.4619 37.1828 38.6705 37.4099 39.4008 37.4747C39.8877 37.5396 40.4789 37.345 40.7224 37.0855C41.3483 36.372 41.2788 34.426 40.5832 33.453C39.3661 31.7016 36.4796 30.7934 35.5406 31.8637Z" fill="black"/>
<path d="M34.4277 39.5179C34.0452 39.7125 33.8018 40.2314 33.8018 40.7828C33.8018 41.5288 34.0452 41.8531 34.8451 42.2423C35.8188 42.7288 35.9231 42.891 35.8188 44.2207C35.7492 45.4532 35.8536 45.81 36.4796 46.1992C37.1751 46.6533 37.3142 46.6208 38.1488 45.8424C38.8096 45.2262 39.0182 44.7072 39.0182 43.6369C39.0182 41.8531 38.427 40.8152 36.9664 39.9071C35.6449 39.0962 35.2972 39.0314 34.4277 39.5179Z" fill="black"/>
<path d="M115.701 44.9993C115.318 45.1615 113.058 47.1075 110.658 49.3454C108.259 51.5833 106.172 53.432 105.998 53.432C105.824 53.432 104.711 52.5563 103.494 51.486C102.312 50.4157 101.164 49.54 100.921 49.54C99.9817 49.54 99.1819 50.2536 99.1819 51.0968C99.1819 51.8104 99.8079 52.5239 102.103 54.5023C106.311 58.07 106.068 58.1349 112.327 52.3617C115.075 49.8319 117.474 47.4967 117.648 47.1724C118.379 45.9399 117.092 44.5128 115.701 44.9993Z" fill="black"/>
</g>
</svg>
