<svg width="36" height="31" viewBox="0 0 36 31" fill="none" xmlns="http://www.w3.org/2000/svg">
<path d="M2.50279 22.6807C1.4605 21.8268 1.48526 21.7621 0.957138 21.085C0.274096 20.2092 0 18.5206 0 18.5206L0.159524 11.9153C0.319047 5.75045 -0.0437526 7.433 1.02095 4.24808C2.08566 1.06316 5.70894 0 9.57139 0H19.4618C28.4589 0 29.4799 0.0518074 30.6604 0.492157C32.6384 1.21744 34.457 2.668 35.2865 4.22218C36.0522 5.54322 36.0522 5.69864 35.9565 12.1744C35.9246 15.8008 35.7013 19.2459 35.5418 19.8157C34.8399 21.9398 32.447 23.9343 29.6075 24.7632C28.8099 24.9704 26.8318 25.0999 23.9285 25.1258L19.4618 25.1517L14.9952 27.9752C10.2414 30.9799 9.12473 31.4202 8.13568 30.695C7.62521 30.3064 7.49759 29.8143 7.43378 27.5089L7.33807 24.7891L5.90236 24.3746C5.00903 24.1156 3.54508 23.5347 2.50279 22.6807Z" fill="#0059FF"/>
</svg>
