<svg width="24" height="24" viewBox="0 0 24 24" fill="none" xmlns="http://www.w3.org/2000/svg">
<path d="M17.6145 2.84424L20.2395 5.59424L18.2384 7.69157L15.6134 4.94157L17.6145 2.84424ZM8 15.6666H10.625L17.0011 8.98682L14.3761 6.23682L8 12.9166V15.6666Z" fill="black"/>
<path d="M17.2109 18.8097H7.72419C7.70144 18.8097 7.67781 18.8189 7.65506 18.8189C7.62619 18.8189 7.59731 18.8106 7.56756 18.8097H4.96094V5.9764H10.9521L12.7021 4.14307H4.96094C3.99581 4.14307 3.21094 4.9644 3.21094 5.9764V18.8097C3.21094 19.8217 3.99581 20.6431 4.96094 20.6431H17.2109C17.6751 20.6431 18.1202 20.4499 18.4484 20.1061C18.7766 19.7623 18.9609 19.296 18.9609 18.8097V10.8641L17.2109 12.6974V18.8097Z" fill="black"/>
</svg>
