<svg width="231" height="105" viewBox="0 0 231 105" fill="none" xmlns="http://www.w3.org/2000/svg">
<path d="M126.248 4.65724C117.961 5.34234 110.178 11.0755 106.152 19.4048C105.448 20.9193 104.676 22.7943 104.475 23.6236L104.106 25.102L101.489 25.3183C93.0352 26.0034 85.9567 32.5659 83.8096 41.6164C81.0922 53.0827 88.4056 65.5227 99.2751 67.9385C101.288 68.3712 107.226 68.4794 135.675 68.5515L169.692 68.6236L171.537 70.6429C172.678 71.8688 173.953 72.8424 174.892 73.203L176.402 73.7799L176.502 77.5659C176.569 80.7751 176.704 81.4602 177.24 82.001C178.28 83.0106 179.454 82.3977 184.453 78.215L189.15 74.2847L193.846 74.2486C196.899 74.2126 198.979 74.0323 199.818 73.7438C202.804 72.59 205.32 69.8135 206.058 66.8568C206.226 66.0635 206.46 61.2678 206.494 56.2198C206.595 47.2053 206.595 46.989 205.789 45.15C204.917 42.9866 203.005 40.9674 200.925 39.9577C199.684 39.3448 198.61 39.2726 189.15 39.2726H178.75L178.18 36.5323C175.731 24.9577 166.136 17.4217 155.568 18.7197C154.092 18.9 152.549 19.1885 152.079 19.3688C151.308 19.6933 151.174 19.5491 150.067 17.4938C148.49 14.501 144.061 9.77743 141.311 8.11878C138.526 6.46012 134.702 5.05387 132.286 4.80147C131.28 4.6933 130.139 4.58512 129.77 4.513C129.401 4.47694 127.824 4.51301 126.248 4.65724ZM135.305 9.09234C141.143 11.1476 145.47 15.0779 148.087 20.775C148.993 22.7222 149.664 23.7678 150.033 23.7678C150.335 23.7678 151.375 23.4433 152.348 23.0467C156.675 21.2798 161.037 21.4601 165.062 23.5875C170.598 26.5443 174.255 31.9529 175.362 38.8399C175.529 39.9217 175.462 40.0659 174.389 40.5707C171.615 41.3693 170.631 43.4193 169.759 45.1861C169.055 46.5563 169.021 47.2775 168.853 55.8592L168.686 65.0539L160.466 65.2703C155.937 65.3784 140.539 65.3784 126.248 65.2342L100.248 65.0178L97.9332 64.0803C87.7682 59.9337 83.5412 48.4313 88.3721 38.0827C90.3179 33.9722 94.7126 30.2222 98.7719 29.2125C99.5771 28.9962 101.556 28.8159 103.133 28.8159C105.213 28.8159 106.152 28.6717 106.421 28.3111C106.622 28.0226 107.125 26.6164 107.494 25.1741C109.038 19.1524 112.594 14.2125 117.693 11.0034C123.43 7.39762 128.797 6.8207 135.305 9.09234ZM198.812 42.9145C200.388 43.3832 202.368 45.1861 202.938 46.7366C203.307 47.602 203.408 50.09 203.408 56.4001C203.408 65.4866 203.24 66.5323 201.63 68.4433C200.086 70.2462 198.644 70.6429 193.175 70.6429C187.439 70.6429 188.277 70.3183 183.212 74.6813C181.434 76.2318 179.891 77.4938 179.79 77.4938C179.689 77.4938 179.589 76.0515 179.589 74.2486C179.589 70.7871 179.32 70.2823 177.576 70.2823C176.469 70.2823 174.322 68.9481 173.416 67.6861C172.04 65.739 171.839 63.9001 171.94 55.6789C172.04 46.9529 171.984 43.8519 176.211 42.7702L183.927 42.5899C188.187 42.4818 193.108 42.626 194.685 42.5899C196.262 42.5539 198.107 42.6981 198.812 42.9145Z" fill="white"/>
<path d="M120.495 20.9915C118.617 21.7487 116.939 22.9747 116.134 24.1646C115.732 24.7775 114.826 25.6429 114.121 26.1477C112.41 27.3016 110.901 29.5372 110.632 31.3761C110.465 32.53 110.129 32.9987 109.19 33.6477C107.579 34.7655 106.942 35.5227 106.137 37.4699C105.164 39.7415 105.231 42.3016 106.271 44.5372C106.942 45.9074 107.076 46.6285 106.942 47.7463C106.741 49.4771 107.143 51.2078 108.183 52.8304C109.022 54.1285 111.303 55.8593 112.175 55.8593C112.477 55.8593 112.914 56.3641 113.148 56.941C113.652 58.2752 116.235 60.7992 117.812 61.5203C118.449 61.8088 119.959 62.0252 121.166 62.0252C122.944 62.0252 123.615 61.8449 124.89 60.9795L126.433 59.9338L128.178 61.0155C132.103 63.3953 136.967 61.5564 139.148 56.905C139.618 55.9675 140.054 54.5252 140.188 53.7319C140.322 52.9026 140.49 52.2535 140.557 52.2535C140.658 52.2535 142.603 54.1285 144.885 56.4002C148.072 59.6093 149.246 60.5468 149.95 60.5468C151.359 60.5468 163.873 46.8809 165.315 43.78C166.657 40.8593 166.724 37.1814 165.449 34.2247C162.699 27.9506 155.855 26.5444 151.46 31.34L149.85 33.1069L148.944 31.8809C147.568 30.0059 144.616 28.6357 142.167 28.7078C141.06 28.7078 139.886 28.816 139.551 28.8881C139.081 28.9602 138.779 28.5636 138.276 27.1574C137.471 24.8497 135.625 22.542 133.814 21.5324C132.472 20.7751 130.529 20.0005 126.903 20.8833C126.202 21.2711 124.823 20.8833 123.716 20.7391C122.34 20.5949 121.334 20.667 120.495 20.9915ZM124.42 24.1285C124.823 24.1285 124.89 26.8328 124.89 40.4987V56.8689L123.85 57.8064C122.206 59.3208 119.623 59.0324 117.275 57.0853C116.302 56.292 116.268 56.1478 116.604 55.1742C117.107 53.6958 116.537 53.1189 114.255 52.7944C112.712 52.578 112.142 52.3256 111.236 51.3521C110.565 50.6309 110.129 49.8016 110.129 49.2247C110.129 48.3953 110.263 48.2872 111.404 48.2872C112.846 48.2872 113.484 47.7824 113.484 46.6285C113.484 45.655 112.981 45.1862 111.471 44.8617C109.089 44.3208 107.982 42.0492 108.754 39.3088C109.257 37.5059 110.397 36.4242 112.175 36.0997L113.652 35.8112V33.6117C113.652 31.953 113.819 31.1598 114.323 30.4025C115.396 28.8881 116.134 28.7799 118.717 29.7174C121.2 30.6189 121.971 30.4747 122.408 29.1045C122.676 28.167 121.334 26.7247 119.824 26.4001C118.617 26.1477 118.617 25.8232 119.791 24.9218C120.931 24.0203 121.77 23.7679 123.011 23.9843C123.548 24.0564 124.186 24.1285 124.42 24.1285ZM132.271 24.5612C133.881 25.4626 135.089 27.0492 135.659 29.2126C136.028 30.4747 135.961 30.655 134.854 32.2054C133.411 34.2247 132.807 36.7848 133.009 39.7775C133.21 42.4458 134.317 44.9338 136.431 47.4578C137.269 48.4675 137.974 49.3689 137.974 49.4771C137.974 49.5852 137.403 49.8737 136.732 50.0901C135.055 50.667 134.82 50.9554 135.089 52.0732C135.256 52.7223 135.592 53.0468 136.296 53.2271C136.867 53.3352 137.303 53.4795 137.303 53.5877C137.303 53.6598 137.001 54.3449 136.632 55.1021C134.954 58.6718 131.465 59.7896 129.016 57.5179L128.077 56.6526L127.977 40.4266C127.909 25.1021 127.909 24.1646 128.48 24.0203C129.788 23.6598 130.862 23.804 132.271 24.5612ZM145.22 32.9626C146.025 33.4675 147.099 34.5852 147.602 35.4146C148.608 37.1093 149.313 37.8304 149.95 37.8304C150.185 37.8304 151.158 36.7848 152.097 35.4867C154.848 31.8088 157.23 30.9434 160.115 32.4939C162.195 33.6117 163.269 35.7751 163.269 38.7319C163.235 42.0131 162.43 43.3473 155.821 50.5227L149.95 56.905L148.072 55.1742C143.241 50.6309 138.108 44.7896 137.001 42.554C135.994 40.4987 135.894 40.066 136.062 38.155C136.33 34.8376 137.672 33.0708 140.658 32.0251C141.932 31.5924 143.576 31.917 145.22 32.9626Z" fill="white"/>
<path d="M117.525 35.4866C116.854 36.388 117.391 37.7221 118.767 38.4433C119.807 38.9842 120.075 39.3447 120.209 40.3544C120.343 41.4 120.545 41.6524 121.249 41.7245C121.719 41.7967 122.289 41.5803 122.524 41.2919C123.128 40.4986 123.061 38.3351 122.39 37.2534C121.216 35.3063 118.431 34.2967 117.525 35.4866Z" fill="white"/>
<path d="M116.452 43.9962C116.082 44.2126 115.848 44.7895 115.848 45.4025C115.848 46.2318 116.082 46.5924 116.854 47.0251C117.793 47.5659 117.894 47.7462 117.793 49.2246C117.726 50.5948 117.827 50.9914 118.431 51.4241C119.102 51.9289 119.236 51.8929 120.041 51.0275C120.679 50.3424 120.88 49.7654 120.88 48.5755C120.88 46.5924 120.31 45.4385 118.901 44.4289C117.626 43.5275 117.29 43.4554 116.452 43.9962Z" fill="white"/>
<path d="M194.853 50.0898C194.484 50.2701 192.304 52.4336 189.989 54.9216C187.674 57.4095 185.661 59.4648 185.493 59.4648C185.326 59.4648 184.252 58.4913 183.078 57.3014C181.937 56.1115 180.83 55.1379 180.595 55.1379C179.69 55.1379 178.918 55.9312 178.918 56.8687C178.918 57.6619 179.522 58.4552 181.736 60.6547C185.795 64.6211 185.56 64.6932 191.599 58.2749C194.249 55.4624 196.564 52.8663 196.732 52.5057C197.436 51.1355 196.195 49.549 194.853 50.0898Z" fill="white"/>
<path d="M35.1875 69.8003V93.0125H31.0124V69.8003H35.1875ZM41.4431 69.8003V73.5468H24.8545V69.8003H41.4431ZM49.2208 93.3313C48.0478 93.3313 46.9959 93.1187 46.065 92.6936C45.1341 92.2578 44.3428 91.6574 43.6913 90.8921C43.0489 90.1269 42.5555 89.2395 42.2111 88.2298C41.8667 87.2095 41.6945 86.1253 41.6945 84.9776V84.3398C41.6945 83.0326 41.8574 81.8368 42.1831 80.7527C42.509 79.6687 42.9744 78.7281 43.5795 77.9309C44.1939 77.1338 44.9386 76.5227 45.8137 76.0976C46.6887 75.6618 47.6755 75.4439 48.774 75.4439C49.8444 75.4439 50.794 75.6459 51.6225 76.0497C52.451 76.4536 53.1446 77.0275 53.703 77.7715C54.2709 78.5155 54.6991 79.4083 54.9876 80.4498C55.2762 81.4808 55.4205 82.6286 55.4205 83.8934V85.8065H43.412V82.7455H51.4689V82.3948C51.4689 81.7571 51.3665 81.1885 51.1617 80.689C50.9662 80.1788 50.6683 79.7749 50.268 79.4773C49.8678 79.1798 49.3558 79.031 48.732 79.031C48.2014 79.031 47.7453 79.1638 47.3636 79.4295C46.982 79.6952 46.6701 80.0672 46.428 80.5455C46.1953 81.0238 46.0185 81.5871 45.8974 82.2354C45.7858 82.8731 45.7299 83.5746 45.7299 84.3398V84.9776C45.7299 85.6684 45.8137 86.306 45.9812 86.8906C46.1581 87.4751 46.4048 87.98 46.7213 88.4051C47.0472 88.8303 47.4381 89.1598 47.8942 89.3935C48.3596 89.6273 48.8856 89.7443 49.4721 89.7443C50.1982 89.7443 50.8731 89.5849 51.4968 89.266C52.1298 88.9365 52.6744 88.4423 53.1305 87.7833L55.0855 90.2066C54.7689 90.7274 54.3361 91.2269 53.7868 91.7052C53.2469 92.1834 52.5953 92.5767 51.8319 92.8849C51.0686 93.1825 50.1982 93.3313 49.2208 93.3313ZM64.6643 93.3313C63.4914 93.3313 62.4395 93.1187 61.5086 92.6936C60.5777 92.2578 59.7865 91.6574 59.1348 90.8921C58.4925 90.1269 57.9992 89.2395 57.6547 88.2298C57.3103 87.2095 57.138 86.1253 57.138 84.9776V84.3398C57.138 83.0326 57.3009 81.8368 57.6268 80.7527C57.9526 79.6687 58.418 78.7281 59.0231 77.9309C59.6376 77.1338 60.3823 76.5227 61.2572 76.0976C62.1323 75.6618 63.1191 75.4439 64.2175 75.4439C65.2881 75.4439 66.2376 75.6459 67.066 76.0497C67.8946 76.4536 68.5881 77.0275 69.1466 77.7715C69.7145 78.5155 70.1427 79.4083 70.4313 80.4498C70.7199 81.4808 70.8642 82.6286 70.8642 83.8934V85.8065H58.8555V82.7455H66.9124V82.3948C66.9124 81.7571 66.8101 81.1885 66.6053 80.689C66.4098 80.1788 66.112 79.7749 65.7116 79.4773C65.3114 79.1798 64.7993 79.031 64.1757 79.031C63.6451 79.031 63.1889 79.1638 62.8072 79.4295C62.4255 79.6952 62.1137 80.0672 61.8717 80.5455C61.639 81.0238 61.4621 81.5871 61.3411 82.2354C61.2293 82.8731 61.1735 83.5746 61.1735 84.3398V84.9776C61.1735 85.6684 61.2572 86.306 61.4249 86.8906C61.6017 87.4751 61.8484 87.98 62.1649 88.4051C62.4907 88.8303 62.8817 89.1598 63.3378 89.3935C63.8033 89.6273 64.3293 89.7443 64.9158 89.7443C65.6418 89.7443 66.3167 89.5849 66.9404 89.266C67.5734 88.9365 68.1181 88.4423 68.5742 87.7833L70.529 90.2066C70.2126 90.7274 69.7797 91.2269 69.2305 91.7052C68.6905 92.1834 68.0389 92.5767 67.2755 92.8849C66.5122 93.1825 65.6418 93.3313 64.6643 93.3313ZM77.0919 79.4455V93.0125H73.0704V75.7628H76.8406L77.0919 79.4455ZM76.5054 83.7817H75.4163C75.4163 82.5063 75.5606 81.3585 75.8491 80.3382C76.1377 79.3073 76.5427 78.4305 77.064 77.7077C77.5853 76.9744 78.2043 76.4164 78.9211 76.0338C79.6471 75.6405 80.457 75.4439 81.3507 75.4439C82.0582 75.4439 82.7051 75.5608 83.2916 75.7946C83.8781 76.0285 84.3808 76.4005 84.7998 76.9106C85.2279 77.4208 85.5538 78.0957 85.7772 78.9353C86.0099 79.7749 86.1262 80.8006 86.1262 82.0122V93.0125H82.0768V81.9962C82.0768 81.231 81.9838 80.6358 81.7975 80.2107C81.6114 79.7856 81.3368 79.488 80.9737 79.3179C80.6199 79.1372 80.1825 79.0469 79.6612 79.0469C79.1212 79.0469 78.6511 79.1691 78.2509 79.4136C77.8598 79.658 77.534 79.9981 77.2734 80.4339C77.022 80.859 76.8313 81.3585 76.7009 81.9325C76.5706 82.5063 76.5054 83.1229 76.5054 83.7817ZM97.3529 84.7384H92.1725V81.0078H97.3529C98.1535 81.0078 98.8051 80.859 99.3077 80.5614C99.8104 80.2532 100.178 79.8281 100.411 79.286C100.644 78.744 100.76 78.1329 100.76 77.4527C100.76 76.7618 100.644 76.1188 100.411 75.5236C100.178 74.9284 99.8104 74.4502 99.3077 74.0888C98.8051 73.7274 98.1535 73.5468 97.3529 73.5468H93.6246V93.0125H89.4356V69.8003H97.3529C98.9448 69.8003 100.309 70.1298 101.444 70.7887C102.589 71.4371 103.464 72.3351 104.069 73.483C104.674 74.6308 104.977 75.9434 104.977 77.4208C104.977 78.9194 104.674 80.216 104.069 81.3107C103.464 82.4054 102.589 83.2504 101.444 83.8455C100.309 84.4407 98.9448 84.7384 97.3529 84.7384ZM111.638 79.5252V93.0125H107.616V75.7628H111.4L111.638 79.5252ZM116.19 75.6512L116.12 79.9078C115.924 79.8759 115.687 79.8493 115.408 79.8281C115.138 79.7962 114.891 79.7803 114.668 79.7803C114.1 79.7803 113.606 79.8653 113.187 80.0353C112.778 80.1947 112.433 80.4339 112.154 80.7527C111.884 81.0716 111.679 81.4595 111.54 81.9165C111.409 82.3736 111.335 82.8943 111.316 83.4789L110.507 83.1919C110.507 82.076 110.604 81.0503 110.8 80.115C110.995 79.1691 111.279 78.3454 111.651 77.644C112.033 76.9425 112.499 76.4005 113.048 76.0178C113.597 75.6352 114.225 75.4439 114.933 75.4439C115.156 75.4439 115.384 75.4652 115.617 75.5077C115.85 75.5396 116.041 75.5874 116.19 75.6512ZM117.027 84.563V84.2282C117.027 82.9634 117.186 81.7996 117.502 80.7368C117.819 79.6633 118.279 78.7334 118.885 77.9469C119.49 77.1604 120.234 76.5493 121.119 76.1135C122.003 75.6671 123.018 75.4439 124.163 75.4439C125.308 75.4439 126.327 75.6671 127.221 76.1135C128.114 76.5493 128.864 77.1604 129.469 77.9469C130.083 78.7334 130.549 79.6633 130.865 80.7368C131.182 81.7996 131.34 82.9634 131.34 84.2282V84.563C131.34 85.8171 131.182 86.9809 130.865 88.0544C130.549 89.1172 130.083 90.0472 129.469 90.8442C128.864 91.6308 128.119 92.2419 127.235 92.6777C126.35 93.1134 125.336 93.3313 124.191 93.3313C123.046 93.3313 122.026 93.1134 121.133 92.6777C120.248 92.2419 119.499 91.6308 118.885 90.8442C118.279 90.0472 117.819 89.1172 117.502 88.0544C117.186 86.9809 117.027 85.8171 117.027 84.563ZM121.049 84.2282V84.563C121.049 85.2857 121.105 85.9606 121.217 86.5876C121.328 87.2148 121.505 87.7674 121.747 88.2457C121.998 88.7133 122.324 89.08 122.725 89.3457C123.125 89.6114 123.614 89.7443 124.191 89.7443C124.749 89.7443 125.229 89.6114 125.629 89.3457C126.029 89.08 126.35 88.7133 126.592 88.2457C126.834 87.7674 127.011 87.2148 127.123 86.5876C127.244 85.9606 127.305 85.2857 127.305 84.563V84.2282C127.305 83.5267 127.244 82.8678 127.123 82.2513C127.011 81.6243 126.83 81.0716 126.578 80.5933C126.336 80.1044 126.015 79.7218 125.615 79.4455C125.215 79.1691 124.731 79.031 124.163 79.031C123.595 79.031 123.111 79.1691 122.711 79.4455C122.32 79.7218 121.998 80.1044 121.747 80.5933C121.505 81.0716 121.328 81.6243 121.217 82.2513C121.105 82.8678 121.049 83.5267 121.049 84.2282ZM141.212 75.7628V79.015H132.415V75.7628H141.212ZM134.593 71.5061H138.615V87.8153C138.615 88.3148 138.671 88.6973 138.783 88.963C138.904 89.2289 139.08 89.4148 139.313 89.5211C139.546 89.6167 139.839 89.6646 140.193 89.6646C140.444 89.6646 140.668 89.6539 140.863 89.6326C141.068 89.6008 141.24 89.569 141.38 89.537L141.394 92.9168C141.049 93.0443 140.677 93.1454 140.277 93.2197C139.876 93.2941 139.434 93.3313 138.95 93.3313C138.066 93.3313 137.293 93.1666 136.632 92.8371C135.981 92.497 135.478 91.955 135.124 91.211C134.77 90.467 134.593 89.4892 134.593 88.2775V71.5061ZM150.456 93.3313C149.283 93.3313 148.231 93.1187 147.3 92.6936C146.369 92.2578 145.578 91.6574 144.926 90.8921C144.284 90.1269 143.791 89.2395 143.447 88.2298C143.102 87.2095 142.93 86.1253 142.93 84.9776V84.3398C142.93 83.0326 143.093 81.8368 143.418 80.7527C143.744 79.6687 144.209 78.7281 144.814 77.9309C145.429 77.1338 146.174 76.5227 147.049 76.0976C147.924 75.6618 148.911 75.4439 150.01 75.4439C151.08 75.4439 152.029 75.6459 152.857 76.0497C153.687 76.4536 154.38 77.0275 154.938 77.7715C155.506 78.5155 155.934 79.4083 156.222 80.4498C156.512 81.4808 156.656 82.6286 156.656 83.8934V85.8065H144.648V82.7455H152.704V82.3948C152.704 81.7571 152.601 81.1885 152.397 80.689C152.201 80.1788 151.903 79.7749 151.504 79.4773C151.103 79.1798 150.591 79.031 149.967 79.031C149.436 79.031 148.98 79.1638 148.599 79.4295C148.218 79.6952 147.905 80.0672 147.663 80.5455C147.431 81.0238 147.254 81.5871 147.133 82.2354C147.021 82.8731 146.965 83.5746 146.965 84.3398V84.9776C146.965 85.6684 147.049 86.306 147.217 86.8906C147.393 87.4751 147.64 87.98 147.957 88.4051C148.282 88.8303 148.674 89.1598 149.129 89.3935C149.595 89.6273 150.12 89.7443 150.708 89.7443C151.434 89.7443 152.108 89.5849 152.732 89.266C153.365 88.9365 153.91 88.4423 154.366 87.7833L156.32 90.2066C156.004 90.7274 155.572 91.2269 155.022 91.7052C154.483 92.1834 153.831 92.5767 153.067 92.8849C152.303 93.1825 151.434 93.3313 150.456 93.3313ZM165.188 89.7443C165.681 89.7443 166.118 89.6379 166.499 89.4254C166.882 89.2022 167.18 88.8941 167.393 88.5008C167.617 88.0969 167.734 87.624 167.742 87.0819H171.527C171.517 88.2934 171.234 89.3723 170.675 90.3182C170.117 91.2534 169.368 91.9922 168.427 92.5341C167.487 93.0657 166.435 93.3313 165.271 93.3313C164.099 93.3313 163.074 93.1081 162.199 92.6618C161.334 92.2154 160.612 91.5989 160.035 90.8124C159.457 90.0153 159.025 89.0906 158.737 88.0385C158.448 86.9756 158.304 85.8384 158.304 84.6267V84.1644C158.304 82.9422 158.448 81.8049 158.737 80.7527C159.025 79.6899 159.457 78.7652 160.035 77.9788C160.612 77.1816 161.334 76.5599 162.199 76.1135C163.065 75.6671 164.079 75.4439 165.244 75.4439C166.482 75.4439 167.566 75.7149 168.497 76.257C169.437 76.799 170.173 77.5749 170.703 78.5846C171.243 79.5836 171.517 80.7687 171.527 82.1397H167.742C167.734 81.5658 167.627 81.045 167.422 80.5774C167.226 80.1097 166.938 79.7377 166.555 79.4614C166.184 79.1744 165.723 79.031 165.173 79.031C164.587 79.031 164.108 79.1744 163.735 79.4614C163.363 79.7377 163.074 80.1204 162.87 80.6093C162.665 81.0875 162.521 81.6349 162.436 82.2513C162.362 82.8572 162.325 83.4948 162.325 84.1644V84.6267C162.325 85.2963 162.362 85.9394 162.436 86.5558C162.511 87.1722 162.651 87.7196 162.856 88.1978C163.07 88.6761 163.363 89.0534 163.735 89.3298C164.108 89.6061 164.592 89.7443 165.188 89.7443Z" fill="white"/>
</svg>
