<svg width="195" height="82" viewBox="0 0 195 82" fill="none" xmlns="http://www.w3.org/2000/svg">
<path d="M106.573 3.63705C99.5779 4.17208 93.0077 8.64941 89.6094 15.1542C89.0146 16.3369 88.3633 17.8012 88.1934 18.4489L87.8819 19.6034L85.6729 19.7724C78.5364 20.3074 72.561 25.4324 70.7485 32.5004C68.4546 41.4551 74.6283 51.17 83.8038 53.0567C85.503 53.3946 90.5156 53.4791 114.531 53.5354L143.247 53.5917L144.804 55.1687C145.767 56.1261 146.843 56.8864 147.636 57.168L148.911 57.6185L148.996 60.5753C149.052 63.0815 149.165 63.6165 149.619 64.0389C150.496 64.8273 151.488 64.3486 155.707 61.0821L159.672 58.0128L163.637 57.9846C166.214 57.9564 167.97 57.8157 168.678 57.5904C171.198 56.6893 173.322 54.521 173.945 52.2119C174.087 51.5924 174.285 47.8472 174.313 43.9049C174.398 36.8651 174.398 36.6961 173.719 35.26C172.982 33.5704 171.368 31.9935 169.612 31.2051C168.564 30.7263 167.658 30.67 159.672 30.67H150.893L150.412 28.5299C148.344 19.4908 140.245 13.6055 131.324 14.6192C130.078 14.76 128.775 14.9853 128.379 15.1261C127.728 15.3795 127.614 15.2669 126.68 13.6618C125.349 11.3246 121.61 7.63568 119.288 6.34034C116.938 5.04501 113.709 3.9468 111.67 3.74969C110.821 3.66521 109.858 3.58073 109.546 3.52441C109.235 3.49625 107.904 3.52441 106.573 3.63705ZM114.219 7.10065C119.147 8.70573 122.8 11.7751 125.009 16.2243C125.773 17.7449 126.34 18.5615 126.651 18.5615C126.906 18.5615 127.784 18.3081 128.605 17.9983C132.259 16.6185 135.94 16.7593 139.339 18.4207C144.011 20.7298 147.098 24.9537 148.033 30.3321C148.174 31.1769 148.118 31.2895 147.211 31.6838C144.87 32.3074 144.04 33.9084 143.303 35.2882C142.709 36.3582 142.68 36.9214 142.539 43.6233L142.397 50.804L135.459 50.9729C131.636 51.0574 118.637 51.0574 106.573 50.9448L84.6251 50.7758L82.6711 50.0437C74.0902 46.8053 70.522 37.8225 74.6 29.7408C76.2425 26.5306 79.9524 23.602 83.379 22.8136C84.0587 22.6446 85.7296 22.5038 87.0606 22.5038C88.8164 22.5038 89.6094 22.3912 89.8359 22.1096C90.0058 21.8843 90.4306 20.7861 90.7421 19.6597C92.0448 14.9571 95.0467 11.0993 99.3513 8.59309C104.194 5.77716 108.725 5.32661 114.219 7.10065ZM167.828 33.5141C169.159 33.8802 170.83 35.2882 171.311 36.499C171.623 37.1748 171.708 39.1178 171.708 44.0457C171.708 51.1419 171.566 51.9585 170.207 53.451C168.904 54.8589 167.686 55.1687 163.07 55.1687C158.228 55.1687 158.936 54.9152 154.659 58.3225C153.159 59.5334 151.856 60.519 151.771 60.519C151.686 60.519 151.601 59.3926 151.601 57.9846C151.601 55.2813 151.374 54.8871 149.902 54.8871C148.967 54.8871 147.155 53.8452 146.39 52.8596C145.229 51.339 145.059 49.9029 145.144 43.4825C145.229 36.668 145.182 34.2463 148.749 33.4015L155.263 33.2607C158.86 33.1762 163.014 33.2889 164.345 33.2607C165.676 33.2325 167.233 33.3452 167.828 33.5141Z" fill="black"/>
<path d="M101.717 16.3933C100.131 16.9846 98.7155 17.942 98.0358 18.8713C97.696 19.35 96.9313 20.0258 96.3366 20.4201C94.8923 21.3212 93.6179 23.067 93.3914 24.5032C93.2498 25.4043 92.9666 25.7703 92.1736 26.2772C90.8143 27.1501 90.2762 27.7415 89.5965 29.2621C88.7753 31.0361 88.8319 33.0354 89.7098 34.7813C90.2762 35.8514 90.3895 36.4146 90.2762 37.2875C90.1063 38.6392 90.4461 39.9908 91.324 41.258C92.032 42.2717 93.9578 43.6234 94.6941 43.6234C94.949 43.6234 95.3171 44.0176 95.5153 44.4681C95.9401 45.51 98.1207 47.4812 99.4518 48.0444C99.9898 48.2697 101.264 48.4386 102.284 48.4386C103.785 48.4386 104.351 48.2978 105.427 47.622L106.73 46.8054L108.203 47.6502C111.516 49.5087 115.622 48.0725 117.463 44.44C117.86 43.7078 118.228 42.5815 118.341 41.962C118.454 41.3143 118.596 40.8074 118.652 40.8074C118.737 40.8074 120.38 42.2717 122.306 44.0458C124.996 46.5519 125.987 47.2841 126.582 47.2841C127.771 47.2841 138.335 36.6117 139.552 34.19C140.685 31.9091 140.742 29.0368 139.666 26.7278C137.343 21.828 131.566 20.7298 127.856 24.475L126.497 25.8548L125.732 24.8974C124.571 23.4331 122.079 22.3631 120.012 22.4194C119.077 22.4194 118.086 22.5039 117.803 22.5602C117.406 22.6165 117.152 22.3067 116.727 21.2085C116.047 19.4063 114.489 17.6041 112.96 16.8157C111.827 16.2243 110.187 15.6194 107.126 16.3088C106.534 16.6116 105.371 16.3088 104.436 16.1962C103.275 16.0835 102.425 16.1398 101.717 16.3933ZM105.031 18.8431C105.371 18.8431 105.427 20.9551 105.427 31.6275V44.4118L104.549 45.144C103.162 46.3267 100.981 46.1014 98.9987 44.5808C98.1774 43.9613 98.1491 43.8486 98.4323 43.0883C98.8571 41.9338 98.3756 41.4833 96.4499 41.2298C95.1472 41.0609 94.6658 40.8637 93.9011 40.1034C93.3347 39.5403 92.9666 38.8926 92.9666 38.442C92.9666 37.7944 93.0799 37.7099 94.0427 37.7099C95.2605 37.7099 95.7985 37.3157 95.7985 36.4146C95.7985 35.6543 95.3737 35.2882 94.0994 35.0348C92.0887 34.6124 91.1541 32.8383 91.8055 30.6982C92.2303 29.2903 93.1931 28.4455 94.6941 28.192L95.9401 27.9668V26.249C95.9401 24.9537 96.0817 24.3342 96.5065 23.7429C97.4128 22.5602 98.0358 22.4757 100.216 23.2078C102.312 23.9118 102.963 23.7992 103.332 22.7291C103.558 21.997 102.425 20.8706 101.151 20.6172C100.131 20.4201 100.131 20.1666 101.123 19.4626C102.085 18.7587 102.793 18.5615 103.841 18.7305C104.294 18.7868 104.832 18.8431 105.031 18.8431ZM111.658 19.181C113.017 19.885 114.036 21.124 114.518 22.8136C114.829 23.7992 114.773 23.94 113.838 25.1508C112.62 26.7278 112.111 28.7271 112.281 31.0643C112.45 33.1481 113.385 35.0911 115.169 37.0622C115.877 37.8507 116.472 38.5547 116.472 38.6392C116.472 38.7236 115.99 38.9489 115.424 39.1179C114.008 39.5684 113.81 39.7937 114.036 40.6666C114.178 41.1735 114.461 41.4269 115.056 41.5677C115.537 41.6522 115.905 41.7648 115.905 41.8493C115.905 41.9056 115.651 42.4407 115.339 43.032C113.923 45.8198 110.978 46.6927 108.911 44.9187L108.118 44.2429L108.033 31.5712C107.976 19.6034 107.976 18.8713 108.457 18.7587C109.562 18.4771 110.468 18.5897 111.658 19.181ZM122.589 25.7422C123.269 26.1364 124.175 27.0093 124.6 27.657C125.449 28.9805 126.044 29.5437 126.582 29.5437C126.78 29.5437 127.601 28.7271 128.394 27.7133C130.717 24.8411 132.727 24.1653 135.163 25.3761C136.919 26.249 137.825 27.9386 137.825 30.2477C137.796 32.8102 137.117 33.8521 131.538 39.4558L126.582 44.44L124.996 43.0883C120.918 39.5403 116.585 34.9784 115.651 33.2326C114.801 31.6275 114.716 31.2896 114.858 29.7971C115.084 27.2065 116.217 25.8267 118.737 25.01C119.814 24.6721 121.201 24.9256 122.589 25.7422Z" fill="black"/>
<path d="M99.2096 27.7133C98.6432 28.4173 99.0964 29.4592 100.257 30.0224C101.135 30.4448 101.362 30.7264 101.475 31.5149C101.588 32.3315 101.758 32.5286 102.353 32.5849C102.75 32.6412 103.231 32.4723 103.429 32.247C103.939 31.6275 103.882 29.9379 103.316 29.0932C102.325 27.5725 99.9743 26.7841 99.2096 27.7133Z" fill="black"/>
<path d="M98.3035 34.3589C97.9919 34.5279 97.7937 34.9784 97.7937 35.4571C97.7937 36.1048 97.9919 36.3864 98.6433 36.7243C99.4362 37.1467 99.5212 37.2875 99.4362 38.442C99.3796 39.5121 99.4646 39.8218 99.9743 40.1597C100.541 40.554 100.654 40.5258 101.334 39.85C101.872 39.315 102.042 38.8644 102.042 37.9352C102.042 36.3864 101.56 35.4853 100.371 34.6968C99.2946 33.9929 99.0114 33.9365 98.3035 34.3589Z" fill="black"/>
<path d="M164.486 39.1178C164.175 39.2586 162.334 40.9481 160.38 42.8911C158.426 44.8341 156.727 46.4392 156.585 46.4392C156.444 46.4392 155.537 45.6789 154.546 44.7496C153.583 43.8204 152.649 43.0601 152.451 43.0601C151.686 43.0601 151.035 43.6796 151.035 44.4117C151.035 45.0312 151.544 45.6507 153.413 47.3685C156.84 50.466 156.642 50.5223 161.739 45.5099C163.977 43.3135 165.931 41.286 166.072 41.0044C166.667 39.9344 165.619 38.6954 164.486 39.1178Z" fill="black"/>
<path d="M29.7037 54.5106V72.6382H26.1792V54.5106H29.7037ZM34.9843 54.5106V57.4364H20.981V54.5106H34.9843ZM41.55 72.8873C40.5598 72.8873 39.6718 72.7212 38.886 72.3892C38.1002 72.0489 37.4322 71.5799 36.8822 70.9823C36.3399 70.3847 35.9234 69.6917 35.6327 68.9032C35.3419 68.1063 35.1966 67.2597 35.1966 66.3633V65.8653C35.1966 64.8444 35.3341 63.9106 35.6091 63.064C35.8842 62.2173 36.2771 61.4828 36.7878 60.8603C37.3065 60.2377 37.9351 59.7605 38.6738 59.4285C39.4125 59.0882 40.2455 58.918 41.1728 58.918C42.0764 58.918 42.878 59.0757 43.5774 59.3911C44.2767 59.7065 44.8622 60.1547 45.3337 60.7358C45.8131 61.3168 46.1745 62.014 46.4181 62.8274C46.6617 63.6325 46.7835 64.529 46.7835 65.5167V67.0107H36.6464V64.6202H43.4477V64.3463C43.4477 63.8483 43.3613 63.4043 43.1884 63.0142C43.0233 62.6158 42.7719 62.3003 42.434 62.0679C42.0961 61.8355 41.6639 61.7193 41.1374 61.7193C40.6895 61.7193 40.3044 61.8231 39.9822 62.0306C39.6601 62.2381 39.3968 62.5286 39.1924 62.9021C38.996 63.2756 38.8467 63.7155 38.7445 64.2218C38.6503 64.7199 38.6031 65.2677 38.6031 65.8653V66.3633C38.6031 66.9028 38.6738 67.4008 38.8152 67.8573C38.9646 68.3138 39.1728 68.7081 39.44 69.0401C39.7151 69.3721 40.0451 69.6294 40.4301 69.812C40.823 69.9946 41.267 70.086 41.7621 70.086C42.3751 70.086 42.9448 69.9614 43.4712 69.7124C44.0057 69.4551 44.4653 69.0691 44.8504 68.5545L46.5007 70.447C46.2334 70.8537 45.8681 71.2438 45.4044 71.6173C44.9486 71.9908 44.3985 72.2979 43.7542 72.5386C43.1098 72.771 42.3751 72.8873 41.55 72.8873ZM54.5867 72.8873C53.5966 72.8873 52.7086 72.7212 51.9228 72.3892C51.137 72.0489 50.4691 71.5799 49.919 70.9823C49.3767 70.3847 48.9603 69.6917 48.6695 68.9032C48.3788 68.1063 48.2334 67.2597 48.2334 66.3633V65.8653C48.2334 64.8444 48.3709 63.9106 48.646 63.064C48.921 62.2173 49.3138 61.4828 49.8246 60.8603C50.3433 60.2377 50.972 59.7605 51.7106 59.4285C52.4493 59.0882 53.2823 58.918 54.2095 58.918C55.1133 58.918 55.9148 59.0757 56.6141 59.3911C57.3136 59.7065 57.899 60.1547 58.3705 60.7358C58.8498 61.3168 59.2113 62.014 59.455 62.8274C59.6986 63.6325 59.8204 64.529 59.8204 65.5167V67.0107H49.6832V64.6202H56.4845V64.3463C56.4845 63.8483 56.3981 63.4043 56.2252 63.0142C56.0602 62.6158 55.8088 62.3003 55.4708 62.0679C55.1329 61.8355 54.7007 61.7193 54.1742 61.7193C53.7263 61.7193 53.3412 61.8231 53.019 62.0306C52.6968 62.2381 52.4336 62.5286 52.2293 62.9021C52.0329 63.2756 51.8835 63.7155 51.7814 64.2218C51.6871 64.7199 51.6399 65.2677 51.6399 65.8653V66.3633C51.6399 66.9028 51.7106 67.4008 51.8521 67.8573C52.0014 68.3138 52.2096 68.7081 52.4769 69.0401C52.7519 69.3721 53.0819 69.6294 53.4669 69.812C53.8599 69.9946 54.3039 70.086 54.799 70.086C55.4118 70.086 55.9816 69.9614 56.5081 69.7124C57.0424 69.4551 57.5022 69.0691 57.8872 68.5545L59.5374 70.447C59.2703 70.8537 58.9049 71.2438 58.4413 71.6173C57.9854 71.9908 57.4354 72.2979 56.791 72.5386C56.1466 72.771 55.4118 72.8873 54.5867 72.8873ZM65.0775 62.043V72.6382H61.6827V59.167H64.8654L65.0775 62.043ZM64.5824 65.4295H63.6631C63.6631 64.4334 63.7849 63.5371 64.0284 62.7402C64.272 61.9351 64.6139 61.2504 65.054 60.686C65.494 60.1132 66.0166 59.6775 66.6217 59.3787C67.2345 59.0716 67.9182 58.918 68.6726 58.918C69.2699 58.918 69.816 59.0093 70.3111 59.1919C70.8061 59.3745 71.2305 59.665 71.5842 60.0634C71.9456 60.4618 72.2207 60.9889 72.4093 61.6446C72.6057 62.3003 72.7039 63.1013 72.7039 64.0475V72.6382H69.2856V64.0351C69.2856 63.4375 69.207 62.9727 69.0498 62.6406C68.8927 62.3086 68.6608 62.0762 68.3544 61.9434C68.0557 61.8023 67.6865 61.7318 67.2464 61.7318C66.7906 61.7318 66.3938 61.8272 66.0559 62.0181C65.7258 62.209 65.4508 62.4746 65.2308 62.815C65.0185 63.147 64.8575 63.5371 64.7475 63.9853C64.6374 64.4334 64.5824 64.9149 64.5824 65.4295ZM82.1809 66.1766H77.8079V63.2632H82.1809C82.8568 63.2632 83.4069 63.147 83.8311 62.9146C84.2555 62.6738 84.5659 62.3418 84.7624 61.9185C84.9588 61.4952 85.0571 61.018 85.0571 60.4868C85.0571 59.9472 84.9588 59.4451 84.7624 58.9803C84.5659 58.5155 84.2555 58.142 83.8311 57.8597C83.4069 57.5775 82.8568 57.4364 82.1809 57.4364H79.0337V72.6382H75.4975V54.5106H82.1809C83.5248 54.5106 84.676 54.7679 85.6346 55.2825C86.6013 55.7889 87.3399 56.4902 87.8506 57.3866C88.3615 58.2831 88.6169 59.3081 88.6169 60.4618C88.6169 61.6322 88.3615 62.6448 87.8506 63.4997C87.3399 64.3546 86.6013 65.0145 85.6346 65.4793C84.676 65.9441 83.5248 66.1766 82.1809 66.1766ZM94.2394 62.1053V72.6382H90.8447V59.167H94.039L94.2394 62.1053ZM98.0821 59.0799L98.0231 62.4041C97.8582 62.3792 97.6577 62.3584 97.422 62.3418C97.1941 62.3169 96.9859 62.3045 96.7973 62.3045C96.3179 62.3045 95.9014 62.3709 95.5478 62.5037C95.202 62.6282 94.9113 62.815 94.6756 63.064C94.4476 63.313 94.2748 63.6159 94.1569 63.9728C94.0469 64.3298 93.984 64.7364 93.9683 65.193L93.2847 64.9688C93.2847 64.0973 93.3671 63.2964 93.5322 62.5659C93.6972 61.8272 93.9369 61.184 94.2512 60.6362C94.5734 60.0883 94.9663 59.665 95.4299 59.3662C95.8935 59.0674 96.424 58.918 97.0212 58.918C97.2098 58.918 97.4023 58.9346 97.5988 58.9678C97.7953 58.9927 97.9563 59.0301 98.0821 59.0799ZM98.7893 66.0396V65.7782C98.7893 64.7904 98.923 63.8815 99.1901 63.0515C99.4573 62.2132 99.8463 61.4869 100.357 60.8727C100.868 60.2585 101.496 59.7812 102.243 59.4409C102.99 59.0923 103.846 58.918 104.813 58.918C105.779 58.918 106.64 59.0923 107.394 59.4409C108.148 59.7812 108.781 60.2585 109.292 60.8727C109.811 61.4869 110.203 62.2132 110.471 63.0515C110.738 63.8815 110.871 64.7904 110.871 65.7782V66.0396C110.871 67.019 110.738 67.9279 110.471 68.7662C110.203 69.5962 109.811 70.3225 109.292 70.9449C108.781 71.5592 108.152 72.0365 107.406 72.3768C106.659 72.7171 105.803 72.8873 104.836 72.8873C103.87 72.8873 103.009 72.7171 102.255 72.3768C101.508 72.0365 100.876 71.5592 100.357 70.9449C99.8463 70.3225 99.4573 69.5962 99.1901 68.7662C98.923 67.9279 98.7893 67.019 98.7893 66.0396ZM102.184 65.7782V66.0396C102.184 66.604 102.231 67.131 102.326 67.6207C102.42 68.1105 102.569 68.542 102.773 68.9156C102.986 69.2808 103.261 69.5672 103.599 69.7747C103.936 69.9822 104.349 70.086 104.836 70.086C105.308 70.086 105.712 69.9822 106.05 69.7747C106.388 69.5672 106.659 69.2808 106.864 68.9156C107.068 68.542 107.217 68.1105 107.312 67.6207C107.414 67.131 107.465 66.604 107.465 66.0396V65.7782C107.465 65.2303 107.414 64.7157 107.312 64.2342C107.217 63.7446 107.064 63.313 106.852 62.9395C106.648 62.5576 106.376 62.2588 106.039 62.043C105.701 61.8272 105.292 61.7193 104.813 61.7193C104.333 61.7193 103.925 61.8272 103.587 62.043C103.257 62.2588 102.986 62.5576 102.773 62.9395C102.569 63.313 102.42 63.7446 102.326 64.2342C102.231 64.7157 102.184 65.2303 102.184 65.7782ZM119.205 59.167V61.7069H111.779V59.167H119.205ZM113.618 55.8428H117.013V68.5794C117.013 68.9696 117.06 69.2683 117.154 69.4758C117.256 69.6834 117.406 69.8286 117.602 69.9116C117.798 69.9863 118.046 70.0237 118.345 70.0237C118.557 70.0237 118.745 70.0153 118.91 69.9987C119.083 69.9739 119.229 69.949 119.346 69.924L119.358 72.5635C119.068 72.6631 118.753 72.742 118.415 72.8C118.077 72.8581 117.704 72.8873 117.296 72.8873C116.549 72.8873 115.897 72.7586 115.339 72.5013C114.789 72.2357 114.364 71.8124 114.066 71.2314C113.767 70.6503 113.618 69.8868 113.618 68.9405V55.8428ZM127.009 72.8873C126.018 72.8873 125.13 72.7212 124.344 72.3892C123.559 72.0489 122.891 71.5799 122.34 70.9823C121.798 70.3847 121.382 69.6917 121.091 68.9032C120.8 68.1063 120.655 67.2597 120.655 66.3633V65.8653C120.655 64.8444 120.792 63.9106 121.067 63.064C121.343 62.2173 121.735 61.4828 122.246 60.8603C122.765 60.2377 123.394 59.7605 124.132 59.4285C124.871 59.0882 125.704 58.918 126.631 58.918C127.535 58.918 128.336 59.0757 129.035 59.3911C129.736 59.7065 130.321 60.1547 130.792 60.7358C131.271 61.3168 131.633 62.014 131.876 62.8274C132.12 63.6325 132.242 64.529 132.242 65.5167V67.0107H122.105V64.6202H128.906V64.3463C128.906 63.8483 128.819 63.4043 128.647 63.0142C128.481 62.6158 128.23 62.3003 127.893 62.0679C127.555 61.8355 127.122 61.7193 126.595 61.7193C126.148 61.7193 125.762 61.8231 125.441 62.0306C125.119 62.2381 124.855 62.5286 124.651 62.9021C124.455 63.2756 124.305 63.7155 124.203 64.2218C124.109 64.7199 124.061 65.2677 124.061 65.8653V66.3633C124.061 66.9028 124.132 67.4008 124.274 67.8573C124.423 68.3138 124.631 68.7081 124.898 69.0401C125.173 69.3721 125.504 69.6294 125.888 69.812C126.281 69.9946 126.725 70.086 127.221 70.086C127.833 70.086 128.403 69.9614 128.93 69.7124C129.464 69.4551 129.924 69.0691 130.309 68.5545L131.958 70.447C131.692 70.8537 131.327 71.2438 130.863 71.6173C130.407 71.9908 129.857 72.2979 129.212 72.5386C128.568 72.771 127.833 72.8873 127.009 72.8873ZM139.444 70.086C139.86 70.086 140.23 70.0029 140.551 69.8369C140.874 69.6626 141.126 69.4219 141.306 69.1148C141.495 68.7994 141.594 68.4301 141.601 68.0067H144.795C144.787 68.9529 144.548 69.7954 144.076 70.5341C143.605 71.2645 142.973 71.8414 142.179 72.2647C141.385 72.6798 140.497 72.8873 139.514 72.8873C138.525 72.8873 137.66 72.7129 136.921 72.3643C136.191 72.0157 135.582 71.5343 135.095 70.9201C134.607 70.2976 134.242 69.5755 133.998 68.7538C133.755 67.9237 133.633 67.0356 133.633 66.0893V65.7283C133.633 64.7738 133.755 63.8857 133.998 63.064C134.242 62.2339 134.607 61.5118 135.095 60.8976C135.582 60.2751 136.191 59.7895 136.921 59.4409C137.653 59.0923 138.509 58.918 139.491 58.918C140.536 58.918 141.452 59.1297 142.237 59.553C143.031 59.9763 143.653 60.5822 144.1 61.3707C144.556 62.1509 144.787 63.0764 144.795 64.1471H141.601C141.594 63.6989 141.503 63.2922 141.33 62.927C141.165 62.5618 140.922 62.2713 140.599 62.0555C140.285 61.8314 139.896 61.7193 139.432 61.7193C138.937 61.7193 138.533 61.8314 138.218 62.0555C137.904 62.2713 137.66 62.5701 137.488 62.9519C137.315 63.3254 137.193 63.7529 137.121 64.2342C137.059 64.7074 137.028 65.2054 137.028 65.7283V66.0893C137.028 66.6123 137.059 67.1145 137.121 67.5959C137.185 68.0772 137.303 68.5048 137.476 68.8782C137.657 69.2517 137.904 69.5464 138.218 69.7622C138.533 69.978 138.941 70.086 139.444 70.086Z" fill="black"/>
</svg>
