<svg width="128" height="71" viewBox="0 0 128 71" fill="none" xmlns="http://www.w3.org/2000/svg">
<path d="M44.5826 0.133072C35.9928 0.749306 27.9246 5.90623 23.7514 13.3984C23.0211 14.7606 22.2212 16.4471 22.0126 17.1931L21.63 18.5229L18.9175 18.7175C10.1538 19.3337 2.81591 25.2366 0.590211 33.3774C-2.22669 43.6913 5.3546 54.8809 16.6222 57.0539C18.7088 57.4431 24.8643 57.5404 54.3548 57.6053L89.6182 57.6702L91.531 59.4864C92.7134 60.5892 94.0349 61.4649 95.0086 61.7892L96.5736 62.3082L96.6779 65.7137C96.7474 68.6003 96.8866 69.2165 97.443 69.703C98.521 70.6112 99.7382 70.0598 104.92 66.2975L109.789 62.7622L114.657 62.7298C117.822 62.6974 119.978 62.5352 120.848 62.2757C123.943 61.2379 126.551 58.7405 127.316 56.0809C127.49 55.3674 127.733 51.0537 127.768 46.513C127.872 38.4046 127.872 38.21 127.038 36.5559C126.134 34.6099 124.151 32.7936 121.995 31.8855C120.709 31.3341 119.596 31.2693 109.789 31.2693H99.0079L98.4167 28.8043C95.878 18.3932 85.9319 11.6145 74.9773 12.7821C73.4471 12.9443 71.8474 13.2038 71.3605 13.366C70.5607 13.6579 70.4216 13.5281 69.274 11.6794C67.6395 8.98742 63.049 4.73862 60.1973 3.24668C57.3108 1.75475 53.3463 0.489838 50.8424 0.262802C49.7991 0.165504 48.6167 0.0681992 48.2341 0.00332642C47.8516 -0.0291061 46.2171 0.00333405 44.5826 0.133072ZM53.9723 4.1224C60.0234 5.97111 64.5096 9.50636 67.2221 14.6309C68.1611 16.3823 68.8566 17.3228 69.2392 17.3228C69.5522 17.3228 70.6302 17.0309 71.6388 16.6742C76.1249 15.0849 80.6459 15.2471 84.8191 17.1607C90.5572 19.8202 94.3479 24.6853 95.4955 30.8801C95.6694 31.8531 95.5998 31.9828 94.487 32.4369C91.612 33.1552 90.592 34.9991 89.6878 36.5884C88.9575 37.8208 88.9227 38.4695 88.7488 46.1887L88.575 54.4592L80.0547 54.6538C75.3599 54.7512 59.3974 54.7512 44.5826 54.6214L17.6307 54.4268L15.2312 53.5835C4.69385 49.8537 0.311999 39.5074 5.31983 30.199C7.33687 26.5015 11.8926 23.1284 16.1006 22.2203C16.9352 22.0257 18.987 21.8635 20.6215 21.8635C22.7777 21.8635 23.7514 21.7338 24.0296 21.4095C24.2383 21.15 24.7599 19.8851 25.1425 18.5877C26.7422 13.1713 30.4285 8.72795 35.7146 5.84137C41.6614 2.59801 47.2256 2.07909 53.9723 4.1224ZM119.804 34.5451C121.439 34.9667 123.491 36.5884 124.082 37.983C124.464 38.7614 124.569 40.9993 124.569 46.6752C124.569 54.8485 124.395 55.789 122.726 57.508C121.126 59.1297 119.63 59.4864 113.962 59.4864C108.015 59.4864 108.884 59.1945 103.633 63.119C101.79 64.5136 100.19 65.6488 100.086 65.6488C99.9817 65.6488 99.8773 64.3515 99.8773 62.7298C99.8773 59.6162 99.5991 59.1621 97.7907 59.1621C96.6431 59.1621 94.4174 57.9621 93.4784 56.8269C92.0526 55.0755 91.8439 53.4214 91.9483 46.0265C92.0526 38.1776 91.9943 35.3883 96.3758 34.4153L104.374 34.2532C108.791 34.1558 113.892 34.2856 115.527 34.2532C117.161 34.2207 119.074 34.3505 119.804 34.5451Z" fill="black"/>
<path d="M38.62 14.8257C36.6725 15.5068 34.9337 16.6096 34.0991 17.6799C33.6817 18.2312 32.7428 19.0096 32.0125 19.4637C30.2388 20.5016 28.6739 22.5125 28.3957 24.1666C28.2218 25.2045 27.874 25.6261 26.9003 26.2099C25.231 27.2153 24.5703 27.8964 23.7356 29.6478C22.7271 31.6912 22.7967 33.9939 23.8747 36.0048C24.5703 37.2373 24.7094 37.886 24.5703 38.8914C24.3616 40.4482 24.7789 42.005 25.857 43.4645C26.7264 44.6321 29.0912 46.1889 29.9954 46.1889C30.3084 46.1889 30.7605 46.643 31.0039 47.162C31.5256 48.362 34.2034 50.6323 35.8379 51.281C36.4986 51.5405 38.0636 51.7351 39.3155 51.7351C41.1587 51.7351 41.8542 51.5729 43.1757 50.7945L44.7755 49.8539L46.5838 50.8269C50.6527 52.9676 55.6953 51.3134 57.9558 47.1295C58.4427 46.2862 58.8948 44.9889 59.0339 44.2754C59.173 43.5294 59.3469 42.9456 59.4164 42.9456C59.5207 42.9456 61.5378 44.6321 63.9026 46.6755C67.2064 49.562 68.4235 50.4053 69.1539 50.4053C70.6145 50.4053 83.5861 38.113 85.0815 35.3237C86.4726 32.6966 86.5421 29.3884 85.2206 26.7288C82.369 21.0854 75.2745 19.8205 70.7188 24.1341L69.0495 25.7234L68.1106 24.6206C66.6847 22.9341 63.6244 21.7016 61.0857 21.7665C59.9381 21.7665 58.7209 21.8638 58.3731 21.9287C57.8862 21.9935 57.5732 21.6368 57.0516 20.3719C56.217 18.2961 54.3042 16.2204 52.4263 15.3122C51.0352 14.6311 49.0214 13.9344 45.2623 14.7284C44.5352 15.0772 43.1062 14.7284 41.9586 14.5987C40.5327 14.469 39.4894 14.5338 38.62 14.8257ZM42.6889 17.6474C43.1062 17.6474 43.1757 20.08 43.1757 32.3723V47.0971L42.0977 47.9404C40.3936 49.3026 37.7158 49.0431 35.2815 47.2917C34.2729 46.5782 34.2382 46.4484 34.5859 45.5727C35.1076 44.2429 34.5164 43.724 32.1516 43.4321C30.5518 43.2375 29.9606 43.0105 29.0217 42.1348C28.3261 41.4861 27.874 40.7401 27.874 40.2212C27.874 39.4752 28.0131 39.3779 29.1956 39.3779C30.6909 39.3779 31.3517 38.9238 31.3517 37.886C31.3517 37.0103 30.8301 36.5886 29.2651 36.2967C26.796 35.8102 25.6483 33.7669 26.4482 31.302C26.9698 29.6803 28.1523 28.7073 29.9954 28.4154L31.5256 28.1559V26.1775C31.5256 24.6855 31.6995 23.972 32.2211 23.2909C33.334 21.9287 34.099 21.8314 36.7768 22.6746C39.3503 23.4855 40.1502 23.3557 40.6023 22.1233C40.8805 21.28 39.4894 19.9827 37.9245 19.6908C36.6725 19.4637 36.6725 19.1718 37.8897 18.361C39.0721 17.5501 39.9415 17.3231 41.2282 17.5177C41.7847 17.5826 42.4454 17.6474 42.6889 17.6474ZM50.8266 18.0366C52.4959 18.8475 53.7478 20.2746 54.339 22.2206C54.7216 23.3557 54.652 23.5179 53.5044 24.9126C52.009 26.7288 51.383 29.0316 51.5917 31.7236C51.8003 34.1237 52.948 36.3616 55.1389 38.6319C56.0083 39.5401 56.7386 40.3509 56.7386 40.4482C56.7386 40.5455 56.1474 40.805 55.4519 40.9996C53.713 41.5185 53.4696 41.778 53.7478 42.7834C53.9217 43.3672 54.2695 43.6591 54.9998 43.8213C55.591 43.9186 56.0431 44.0483 56.0431 44.1456C56.0431 44.2105 55.7301 44.8267 55.3475 45.5078C53.6087 48.7188 49.9919 49.7242 47.4533 47.6809L46.4795 46.9025L46.3752 32.3074C46.3056 18.5231 46.3056 17.6799 46.8968 17.5501C48.2531 17.2258 49.366 17.3555 50.8266 18.0366ZM64.2504 25.5937C65.085 26.0477 66.1978 27.0532 66.7195 27.7991C67.7628 29.3235 68.4931 29.9722 69.1539 29.9722C69.3973 29.9722 70.4058 29.0316 71.3796 27.864C74.2312 24.5558 76.7004 23.7774 79.6912 25.172C81.8473 26.1775 82.9602 28.1235 82.9602 30.783C82.9254 33.7345 82.0907 34.9345 75.2397 41.3888L69.1539 47.1295L67.2064 45.5727C62.1985 41.4861 56.8777 36.2319 55.7301 34.221C54.6868 32.3723 54.5825 31.9831 54.7563 30.2641C55.0346 27.2802 56.4256 25.691 59.5207 24.7504C60.8422 24.3612 62.5463 24.6531 64.2504 25.5937Z" fill="black"/>
<path d="M35.5406 27.8637C34.8451 28.6746 35.4015 29.8746 36.8274 30.5233C37.9054 31.0098 38.1837 31.3341 38.3228 32.2423C38.4619 33.1828 38.6705 33.4099 39.4008 33.4747C39.8877 33.5396 40.4789 33.345 40.7224 33.0855C41.3483 32.372 41.2788 30.426 40.5832 29.453C39.3661 27.7016 36.4796 26.7934 35.5406 27.8637Z" fill="black"/>
<path d="M34.4277 35.5179C34.0452 35.7125 33.8018 36.2314 33.8018 36.7828C33.8018 37.5288 34.0452 37.8531 34.8451 38.2423C35.8188 38.7288 35.9231 38.891 35.8188 40.2207C35.7492 41.4532 35.8536 41.81 36.4796 42.1992C37.1751 42.6533 37.3142 42.6208 38.1488 41.8424C38.8096 41.2262 39.0182 40.7072 39.0182 39.6369C39.0182 37.8531 38.427 36.8152 36.9664 35.9071C35.6449 35.0962 35.2972 35.0314 34.4277 35.5179Z" fill="black"/>
<path d="M115.701 40.9993C115.318 41.1615 113.058 43.1075 110.658 45.3454C108.259 47.5833 106.172 49.432 105.998 49.432C105.824 49.432 104.711 48.5563 103.494 47.486C102.312 46.4157 101.164 45.54 100.921 45.54C99.9817 45.54 99.1819 46.2536 99.1819 47.0968C99.1819 47.8104 99.8079 48.5239 102.103 50.5023C106.311 54.07 106.068 54.1349 112.327 48.3617C115.075 45.8319 117.474 43.4967 117.648 43.1724C118.379 41.9399 117.092 40.5128 115.701 40.9993Z" fill="black"/>
</svg>
